  0
SECTION
  2
HEADER
  9
$ACADVER
  1
AC1009
  9
$DWGCODEPAGE
  3
ANSI_1252
  9
$EXTMIN
 10
1e+20
 20
1e+20
 30
1e+20
  9
$EXTMAX
 10
-1e+20
 20
-1e+20
 30
-1e+20
  9
$LIMMIN
 10
0.0
 20
0.0
  9
$LIMMAX
 10
420.0
 20
297.0
  9
$TDCREATE
 40
2461191.7980787037
  9
$TDUPDATE
 40
2461191.7980787037
  9
$PEXTMIN
 10
1e+20
 20
1e+20
 30
1e+20
  9
$PEXTMAX
 10
-1e+20
 20
-1e+20
 30
-1e+20
  9
$PLIMMIN
 10
0.0
 20
0.0
  9
$PLIMMAX
 10
420.0
 20
297.0
  0
ENDSEC
  0
SECTION
  2
TABLES
  0
TABLE
  2
VPORT
 70
1
  0
VPORT
  2
*Active
 70
0
 10
0.0
 20
0.0
 11
1.0
 21
1.0
 12
0.0
 22
0.0
 13
0.0
 23
0.0
 14
0.5
 24
0.5
 15
0.5
 25
0.5
 16
0.0
 26
0.0
 36
1.0
 17
0.0
 27
0.0
 37
0.0
 40
1000.0
 41
1.34
 42
50.0
 43
0.0
 44
0.0
 50
0.0
 51
0.0
 71
0
 72
1000
 73
1
 74
3
 75
0
 76
0
 77
0
 78
0
  0
ENDTAB
  0
TABLE
  2
LTYPE
 70
5
  0
LTYPE
  2
CONTINUOUS
 70
0
  3
______
 72
65
 73
0
 40
0.0
  0
LTYPE
  2
DASHED
 70
0
  3
_ _ _ 
 72
65
 73
2
 40
7.5
 49
5.0
 49
-2.5
  0
LTYPE
  2
DOTTED
 70
0
  3
. . . 
 72
65
 73
2
 40
1.5
 49
0.5
 49
-1.0
  0
LTYPE
  2
ByBlock
 70
0
  3

 72
65
 73
0
 40
0.0
  0
LTYPE
  2
ByLayer
 70
0
  3

 72
65
 73
0
 40
0.0
  0
ENDTAB
  0
TABLE
  2
LAYER
 70
2
  0
LAYER
  2
0
 70
0
 62
7
  6
Continuous
  0
LAYER
  2
Defpoints
 70
0
 62
7
  6
Continuous
  0
ENDTAB
  0
TABLE
  2
STYLE
 70
1
  0
STYLE
  2
Standard
 70
0
 40
0.0
 41
1.0
 50
0.0
 71
0
 42
2.5
  3
txt
  4

  0
ENDTAB
  0
TABLE
  2
VIEW
 70
0
  0
ENDTAB
  0
TABLE
  2
UCS
 70
0
  0
ENDTAB
  0
TABLE
  2
APPID
 70
3
  0
APPID
  2
ACAD
 70
0
  0
APPID
  2
HATCHBACKGROUNDCOLOR
 70
0
  0
APPID
  2
EZDXF
 70
0
  0
ENDTAB
  0
TABLE
  2
DIMSTYLE
 70
1
  0
DIMSTYLE
  2
Standard
 70
0
  3

  4

  5

  6

  7

 40
1.0
 41
2.5
 42
0.625
 43
3.75
 44
1.25
 45
0.0
 46
0.0
 47
0.0
 48
0.0
140
2.5
141
2.5
142
0.0
143
0.03937007874
144
1.0
145
0.0
146
1.0
147
0.625
 71
0
 72
0
 73
0
 74
0
 75
0
 76
0
 77
1
 78
8
170
0
171
3
172
1
173
0
174
0
175
0
176
0
177
0
178
0
  0
ENDTAB
  0
ENDSEC
  0
SECTION
  2
BLOCKS
  0
BLOCK
  8
0
  2
$Model_Space
 70
0
 10
0.0
 20
0.0
 30
0.0
  3
$Model_Space
  1

1001
EZDXF
1000
WRITTEN_BY_EZDXF
1000
1.4.4 @ 2026-05-30T23:09:14.533792+00:00
  0
ENDBLK
  8
0
  0
BLOCK
  8
0
  2
$Paper_Space
 70
0
 10
0.0
 20
0.0
 30
0.0
  3
$Paper_Space
  1

  0
ENDBLK
  8
0
  0
ENDSEC
  0
SECTION
  2
ENTITIES
  0
LINE
  8
0
  6
CONTINUOUS
 10
29.5738966
 20
7.3004362
 30
0.0
 11
47.3004362
 21
10.4261034
 31
0.0
  0
LINE
  8
0
  6
CONTINUOUS
 10
47.3004362
 20
10.4261034
 30
0.0
 11
50.4261034
 21
-7.3004362
 31
0.0
  0
LINE
  8
0
  6
CONTINUOUS
 10
50.4261034
 20
-7.3004362
 30
0.0
 11
32.6995638
 21
-10.4261034
 31
0.0
  0
LINE
  8
0
  6
CONTINUOUS
 10
32.6995638
 20
-10.4261034
 30
0.0
 11
29.5738966
 21
7.3004362
 31
0.0
  0
LINE
  8
0
  6
CONTINUOUS
 10
26.2745812
 20
26.0117835
 30
0.0
 11
44.0011208
 21
29.1374507
 31
0.0
  0
LINE
  8
0
  6
CONTINUOUS
 10
44.0011208
 20
29.1374507
 30
0.0
 11
47.126788
 21
11.4109111
 31
0.0
  0
LINE
  8
0
  6
CONTINUOUS
 10
47.126788
 20
11.4109111
 30
0.0
 11
29.4002484
 21
8.2852439
 31
0.0
  0
LINE
  8
0
  6
CONTINUOUS
 10
29.4002484
 20
8.2852439
 30
0.0
 11
26.2745812
 21
26.0117835
 31
0.0
  0
LINE
  8
0
  6
CONTINUOUS
 10
22.9752658
 20
44.7231308
 30
0.0
 11
40.7018054
 21
47.848798
 31
0.0
  0
LINE
  8
0
  6
CONTINUOUS
 10
40.7018054
 20
47.848798
 30
0.0
 11
43.8274726
 21
30.1222584
 31
0.0
  0
LINE
  8
0
  6
CONTINUOUS
 10
43.8274726
 20
30.1222584
 30
0.0
 11
26.100933
 21
26.9965912
 31
0.0
  0
LINE
  8
0
  6
CONTINUOUS
 10
26.100933
 20
26.9965912
 30
0.0
 11
22.9752658
 21
44.7231308
 31
0.0
  0
LINE
  8
0
  6
CONTINUOUS
 10
19.6759504
 20
63.4344781
 30
0.0
 11
37.40249
 21
66.5601453
 31
0.0
  0
LINE
  8
0
  6
CONTINUOUS
 10
37.40249
 20
66.5601453
 30
0.0
 11
40.5281572
 21
48.8336057
 31
0.0
  0
LINE
  8
0
  6
CONTINUOUS
 10
40.5281572
 20
48.8336057
 30
0.0
 11
22.8016176
 21
45.7079385
 31
0.0
  0
LINE
  8
0
  6
CONTINUOUS
 10
22.8016176
 20
45.7079385
 30
0.0
 11
19.6759504
 21
63.4344781
 31
0.0
  0
LINE
  8
0
  6
CONTINUOUS
 10
49.580489
 20
14.6693497
 30
0.0
 11
67.4053142
 21
17.1744655
 31
0.0
  0
LINE
  8
0
  6
CONTINUOUS
 10
67.4053142
 20
17.1744655
 30
0.0
 11
69.91043
 21
-0.6503597
 31
0.0
  0
LINE
  8
0
  6
CONTINUOUS
 10
69.91043
 20
-0.6503597
 30
0.0
 11
52.0856048
 21
-3.1554755
 31
0.0
  0
LINE
  8
0
  6
CONTINUOUS
 10
52.0856048
 20
-3.1554755
 30
0.0
 11
49.580489
 21
14.6693497
 31
0.0
  0
LINE
  8
0
  6
CONTINUOUS
 10
46.9362001
 20
33.484443
 30
0.0
 11
64.7610253
 21
35.9895588
 31
0.0
  0
LINE
  8
0
  6
CONTINUOUS
 10
64.7610253
 20
35.9895588
 30
0.0
 11
67.2661411
 21
18.1647336
 31
0.0
  0
LINE
  8
0
  6
CONTINUOUS
 10
67.2661411
 20
18.1647336
 30
0.0
 11
49.4413159
 21
15.6596178
 31
0.0
  0
LINE
  8
0
  6
CONTINUOUS
 10
49.4413159
 20
15.6596178
 30
0.0
 11
46.9362001
 21
33.484443
 31
0.0
  0
LINE
  8
0
  6
CONTINUOUS
 10
44.2919112
 20
52.2995363
 30
0.0
 11
62.1167364
 21
54.8046521
 31
0.0
  0
LINE
  8
0
  6
CONTINUOUS
 10
62.1167364
 20
54.8046521
 30
0.0
 11
64.6218522
 21
36.9798269
 31
0.0
  0
LINE
  8
0
  6
CONTINUOUS
 10
64.6218522
 20
36.9798269
 30
0.0
 11
46.797027
 21
34.4747111
 31
0.0
  0
LINE
  8
0
  6
CONTINUOUS
 10
46.797027
 20
34.4747111
 30
0.0
 11
44.2919112
 21
52.2995363
 31
0.0
  0
LINE
  8
0
  6
CONTINUOUS
 10
41.6476223
 20
71.1146296
 30
0.0
 11
59.4724475
 21
73.6197454
 31
0.0
  0
LINE
  8
0
  6
CONTINUOUS
 10
59.4724475
 20
73.6197454
 30
0.0
 11
61.9775633
 21
55.7949202
 31
0.0
  0
LINE
  8
0
  6
CONTINUOUS
 10
61.9775633
 20
55.7949202
 30
0.0
 11
44.1527381
 21
53.2898044
 31
0.0
  0
LINE
  8
0
  6
CONTINUOUS
 10
44.1527381
 20
53.2898044
 30
0.0
 11
41.6476223
 21
71.1146296
 31
0.0
  0
LINE
  8
0
  6
CONTINUOUS
 10
69.8320653
 20
21.3355543
 30
0.0
 11
87.7334594
 21
23.2170666
 31
0.0
  0
LINE
  8
0
  6
CONTINUOUS
 10
87.7334594
 20
23.2170666
 30
0.0
 11
89.6149717
 21
5.3156725
 31
0.0
  0
LINE
  8
0
  6
CONTINUOUS
 10
89.6149717
 20
5.3156725
 30
0.0
 11
71.7135776
 21
3.4341602
 31
0.0
  0
LINE
  8
0
  6
CONTINUOUS
 10
71.7135776
 20
3.4341602
 30
0.0
 11
69.8320653
 21
21.3355543
 31
0.0
  0
LINE
  8
0
  6
CONTINUOUS
 10
67.8460245
 20
40.2314703
 30
0.0
 11
85.7474186
 21
42.1129826
 31
0.0
  0
LINE
  8
0
  6
CONTINUOUS
 10
85.7474186
 20
42.1129826
 30
0.0
 11
87.6289309
 21
24.2115885
 31
0.0
  0
LINE
  8
0
  6
CONTINUOUS
 10
87.6289309
 20
24.2115885
 30
0.0
 11
69.7275368
 21
22.3300762
 31
0.0
  0
LINE
  8
0
  6
CONTINUOUS
 10
69.7275368
 20
22.3300762
 30
0.0
 11
67.8460245
 21
40.2314703
 31
0.0
  0
LINE
  8
0
  6
CONTINUOUS
 10
65.8599837
 20
59.1273863
 30
0.0
 11
83.7613778
 21
61.0088986
 31
0.0
  0
LINE
  8
0
  6
CONTINUOUS
 10
83.7613778
 20
61.0088986
 30
0.0
 11
85.6428901
 21
43.1075045
 31
0.0
  0
LINE
  8
0
  6
CONTINUOUS
 10
85.6428901
 20
43.1075045
 30
0.0
 11
67.741496
 21
41.2259922
 31
0.0
  0
LINE
  8
0
  6
CONTINUOUS
 10
67.741496
 20
41.2259922
 30
0.0
 11
65.8599837
 21
59.1273863
 31
0.0
  0
LINE
  8
0
  6
CONTINUOUS
 10
63.8739429
 20
78.0233023
 30
0.0
 11
81.775337
 21
79.9048146
 31
0.0
  0
LINE
  8
0
  6
CONTINUOUS
 10
81.775337
 20
79.9048146
 30
0.0
 11
83.6568493
 21
62.0034205
 31
0.0
  0
LINE
  8
0
  6
CONTINUOUS
 10
83.6568493
 20
62.0034205
 30
0.0
 11
65.7554552
 21
60.1219082
 31
0.0
  0
LINE
  8
0
  6
CONTINUOUS
 10
65.7554552
 20
60.1219082
 30
0.0
 11
63.8739429
 21
78.0233023
 31
0.0
  0
LINE
  8
0
  6
CONTINUOUS
 10
90.303952
 20
27.2909281
 30
0.0
 11
108.2601049
 21
28.5465446
 31
0.0
  0
LINE
  8
0
  6
CONTINUOUS
 10
108.2601049
 20
28.5465446
 30
0.0
 11
109.5157214
 21
10.5903917
 31
0.0
  0
LINE
  8
0
  6
CONTINUOUS
 10
109.5157214
 20
10.5903917
 30
0.0
 11
91.5595685
 21
9.3347752
 31
0.0
  0
LINE
  8
0
  6
CONTINUOUS
 10
91.5595685
 20
9.3347752
 30
0.0
 11
90.303952
 21
27.2909281
 31
0.0
  0
LINE
  8
0
  6
CONTINUOUS
 10
88.978579
 20
46.2446451
 30
0.0
 11
106.9347319
 21
47.5002616
 31
0.0
  0
LINE
  8
0
  6
CONTINUOUS
 10
106.9347319
 20
47.5002616
 30
0.0
 11
108.1903484
 21
29.5441087
 31
0.0
  0
LINE
  8
0
  6
CONTINUOUS
 10
108.1903484
 20
29.5441087
 30
0.0
 11
90.2341955
 21
28.2884922
 31
0.0
  0
LINE
  8
0
  6
CONTINUOUS
 10
90.2341955
 20
28.2884922
 30
0.0
 11
88.978579
 21
46.2446451
 31
0.0
  0
LINE
  8
0
  6
CONTINUOUS
 10
87.653206
 20
65.1983621
 30
0.0
 11
105.6093589
 21
66.4539786
 31
0.0
  0
LINE
  8
0
  6
CONTINUOUS
 10
105.6093589
 20
66.4539786
 30
0.0
 11
106.8649754
 21
48.4978257
 31
0.0
  0
LINE
  8
0
  6
CONTINUOUS
 10
106.8649754
 20
48.4978257
 30
0.0
 11
88.9088225
 21
47.2422092
 31
0.0
  0
LINE
  8
0
  6
CONTINUOUS
 10
88.9088225
 20
47.2422092
 30
0.0
 11
87.653206
 21
65.1983621
 31
0.0
  0
LINE
  8
0
  6
CONTINUOUS
 10
86.327833
 20
84.1520791
 30
0.0
 11
104.2839859
 21
85.4076956
 31
0.0
  0
LINE
  8
0
  6
CONTINUOUS
 10
104.2839859
 20
85.4076956
 30
0.0
 11
105.5396024
 21
67.4515427
 31
0.0
  0
LINE
  8
0
  6
CONTINUOUS
 10
105.5396024
 20
67.4515427
 30
0.0
 11
87.5834495
 21
66.1959262
 31
0.0
  0
LINE
  8
0
  6
CONTINUOUS
 10
87.5834495
 20
66.1959262
 30
0.0
 11
86.327833
 21
84.1520791
 31
0.0
  0
LINE
  8
0
  6
CONTINUOUS
 10
111.5013566
 20
24.9467287
 30
0.0
 11
129.4903915
 21
25.5749196
 31
0.0
  0
LINE
  8
0
  6
CONTINUOUS
 10
129.4903915
 20
25.5749196
 30
0.0
 11
130.1185824
 21
7.5858847
 31
0.0
  0
LINE
  8
0
  6
CONTINUOUS
 10
130.1185824
 20
7.5858847
 30
0.0
 11
112.1295475
 21
6.9576938
 31
0.0
  0
LINE
  8
0
  6
CONTINUOUS
 10
112.1295475
 20
6.9576938
 30
0.0
 11
111.5013566
 21
24.9467287
 31
0.0
  0
LINE
  8
0
  6
CONTINUOUS
 10
110.8382662
 20
43.9351544
 30
0.0
 11
128.8273011
 21
44.5633453
 31
0.0
  0
LINE
  8
0
  6
CONTINUOUS
 10
128.8273011
 20
44.5633453
 30
0.0
 11
129.455492
 21
26.5743104
 31
0.0
  0
LINE
  8
0
  6
CONTINUOUS
 10
129.455492
 20
26.5743104
 30
0.0
 11
111.4664571
 21
25.9461195
 31
0.0
  0
LINE
  8
0
  6
CONTINUOUS
 10
111.4664571
 20
25.9461195
 30
0.0
 11
110.8382662
 21
43.9351544
 31
0.0
  0
LINE
  8
0
  6
CONTINUOUS
 10
110.1751758
 20
62.9235801
 30
0.0
 11
128.1642107
 21
63.551771
 31
0.0
  0
LINE
  8
0
  6
CONTINUOUS
 10
128.1642107
 20
63.551771
 30
0.0
 11
128.7924016
 21
45.5627361
 31
0.0
  0
LINE
  8
0
  6
CONTINUOUS
 10
128.7924016
 20
45.5627361
 30
0.0
 11
110.8033667
 21
44.9345452
 31
0.0
  0
LINE
  8
0
  6
CONTINUOUS
 10
110.8033667
 20
44.9345452
 30
0.0
 11
110.1751758
 21
62.9235801
 31
0.0
  0
LINE
  8
0
  6
CONTINUOUS
 10
109.5120854
 20
81.9120058
 30
0.0
 11
127.5011203
 21
82.5401967
 31
0.0
  0
LINE
  8
0
  6
CONTINUOUS
 10
127.5011203
 20
82.5401967
 30
0.0
 11
128.1293112
 21
64.5511618
 31
0.0
  0
LINE
  8
0
  6
CONTINUOUS
 10
128.1293112
 20
64.5511618
 30
0.0
 11
110.1402763
 21
63.9229709
 31
0.0
  0
LINE
  8
0
  6
CONTINUOUS
 10
110.1402763
 20
63.9229709
 30
0.0
 11
109.5120854
 21
81.9120058
 31
0.0
  0
LINE
  8
0
  6
CONTINUOUS
 10
132.6040368
 20
59.8641787
 30
0.0
 11
150.6040368
 21
59.8641787
 31
0.0
  0
LINE
  8
0
  6
CONTINUOUS
 10
150.6040368
 20
59.8641787
 30
0.0
 11
150.6040368
 21
41.8641787
 31
0.0
  0
LINE
  8
0
  6
CONTINUOUS
 10
150.6040368
 20
41.8641787
 30
0.0
 11
132.6040368
 21
41.8641787
 31
0.0
  0
LINE
  8
0
  6
CONTINUOUS
 10
132.6040368
 20
41.8641787
 30
0.0
 11
132.6040368
 21
59.8641787
 31
0.0
  0
LINE
  8
0
  6
CONTINUOUS
 10
132.6040368
 20
78.8641787
 30
0.0
 11
150.6040368
 21
78.8641787
 31
0.0
  0
LINE
  8
0
  6
CONTINUOUS
 10
150.6040368
 20
78.8641787
 30
0.0
 11
150.6040368
 21
60.8641787
 31
0.0
  0
LINE
  8
0
  6
CONTINUOUS
 10
150.6040368
 20
60.8641787
 30
0.0
 11
132.6040368
 21
60.8641787
 31
0.0
  0
LINE
  8
0
  6
CONTINUOUS
 10
132.6040368
 20
60.8641787
 30
0.0
 11
132.6040368
 21
78.8641787
 31
0.0
  0
LINE
  8
0
  6
CONTINUOUS
 10
132.6040368
 20
21.8641787
 30
0.0
 11
194.1040368
 21
21.8641787
 31
0.0
  0
LINE
  8
0
  6
CONTINUOUS
 10
194.1040368
 20
21.8641787
 30
0.0
 11
194.1040368
 21
3.8641787
 31
0.0
  0
LINE
  8
0
  6
CONTINUOUS
 10
194.1040368
 20
3.8641787
 30
0.0
 11
132.6040368
 21
3.8641787
 31
0.0
  0
LINE
  8
0
  6
CONTINUOUS
 10
132.6040368
 20
3.8641787
 30
0.0
 11
132.6040368
 21
21.8641787
 31
0.0
  0
LINE
  8
0
  6
CONTINUOUS
 10
132.6040368
 20
40.8641787
 30
0.0
 11
194.1040368
 21
40.8641787
 31
0.0
  0
LINE
  8
0
  6
CONTINUOUS
 10
194.1040368
 20
40.8641787
 30
0.0
 11
194.1040368
 21
22.8641787
 31
0.0
  0
LINE
  8
0
  6
CONTINUOUS
 10
194.1040368
 20
22.8641787
 30
0.0
 11
132.6040368
 21
22.8641787
 31
0.0
  0
LINE
  8
0
  6
CONTINUOUS
 10
132.6040368
 20
22.8641787
 30
0.0
 11
132.6040368
 21
40.8641787
 31
0.0
  0
LINE
  8
0
  6
CONTINUOUS
 10
154.1040368
 20
59.8641787
 30
0.0
 11
194.1040368
 21
59.8641787
 31
0.0
  0
LINE
  8
0
  6
CONTINUOUS
 10
194.1040368
 20
59.8641787
 30
0.0
 11
194.1040368
 21
41.8641787
 31
0.0
  0
LINE
  8
0
  6
CONTINUOUS
 10
194.1040368
 20
41.8641787
 30
0.0
 11
154.1040368
 21
41.8641787
 31
0.0
  0
LINE
  8
0
  6
CONTINUOUS
 10
154.1040368
 20
41.8641787
 30
0.0
 11
154.1040368
 21
59.8641787
 31
0.0
  0
LINE
  8
0
  6
CONTINUOUS
 10
154.1040368
 20
78.8641788
 30
0.0
 11
194.1040368
 21
78.8641788
 31
0.0
  0
LINE
  8
0
  6
CONTINUOUS
 10
194.1040368
 20
78.8641788
 30
0.0
 11
194.1040368
 21
60.8641788
 31
0.0
  0
LINE
  8
0
  6
CONTINUOUS
 10
194.1040368
 20
60.8641788
 30
0.0
 11
154.1040368
 21
60.8641788
 31
0.0
  0
LINE
  8
0
  6
CONTINUOUS
 10
154.1040368
 20
60.8641788
 30
0.0
 11
154.1040368
 21
78.8641788
 31
0.0
  0
LINE
  8
0
  6
CONTINUOUS
 10
-47.3004362
 20
10.4261034
 30
0.0
 11
-29.5738966
 21
7.3004362
 31
0.0
  0
LINE
  8
0
  6
CONTINUOUS
 10
-29.5738966
 20
7.3004362
 30
0.0
 11
-32.6995638
 21
-10.4261034
 31
0.0
  0
LINE
  8
0
  6
CONTINUOUS
 10
-32.6995638
 20
-10.4261034
 30
0.0
 11
-50.4261034
 21
-7.3004362
 31
0.0
  0
LINE
  8
0
  6
CONTINUOUS
 10
-50.4261034
 20
-7.3004362
 30
0.0
 11
-47.3004362
 21
10.4261034
 31
0.0
  0
LINE
  8
0
  6
CONTINUOUS
 10
-44.0011208
 20
29.1374507
 30
0.0
 11
-26.2745812
 21
26.0117835
 31
0.0
  0
LINE
  8
0
  6
CONTINUOUS
 10
-26.2745812
 20
26.0117835
 30
0.0
 11
-29.4002484
 21
8.2852439
 31
0.0
  0
LINE
  8
0
  6
CONTINUOUS
 10
-29.4002484
 20
8.2852439
 30
0.0
 11
-47.126788
 21
11.4109111
 31
0.0
  0
LINE
  8
0
  6
CONTINUOUS
 10
-47.126788
 20
11.4109111
 30
0.0
 11
-44.0011208
 21
29.1374507
 31
0.0
  0
LINE
  8
0
  6
CONTINUOUS
 10
-40.7018054
 20
47.848798
 30
0.0
 11
-22.9752658
 21
44.7231308
 31
0.0
  0
LINE
  8
0
  6
CONTINUOUS
 10
-22.9752658
 20
44.7231308
 30
0.0
 11
-26.100933
 21
26.9965912
 31
0.0
  0
LINE
  8
0
  6
CONTINUOUS
 10
-26.100933
 20
26.9965912
 30
0.0
 11
-43.8274726
 21
30.1222584
 31
0.0
  0
LINE
  8
0
  6
CONTINUOUS
 10
-43.8274726
 20
30.1222584
 30
0.0
 11
-40.7018054
 21
47.848798
 31
0.0
  0
LINE
  8
0
  6
CONTINUOUS
 10
-37.40249
 20
66.5601453
 30
0.0
 11
-19.6759504
 21
63.4344781
 31
0.0
  0
LINE
  8
0
  6
CONTINUOUS
 10
-19.6759504
 20
63.4344781
 30
0.0
 11
-22.8016176
 21
45.7079385
 31
0.0
  0
LINE
  8
0
  6
CONTINUOUS
 10
-22.8016176
 20
45.7079385
 30
0.0
 11
-40.5281572
 21
48.8336057
 31
0.0
  0
LINE
  8
0
  6
CONTINUOUS
 10
-40.5281572
 20
48.8336057
 30
0.0
 11
-37.40249
 21
66.5601453
 31
0.0
  0
LINE
  8
0
  6
CONTINUOUS
 10
-67.4053142
 20
17.1744655
 30
0.0
 11
-49.580489
 21
14.6693497
 31
0.0
  0
LINE
  8
0
  6
CONTINUOUS
 10
-49.580489
 20
14.6693497
 30
0.0
 11
-52.0856048
 21
-3.1554755
 31
0.0
  0
LINE
  8
0
  6
CONTINUOUS
 10
-52.0856048
 20
-3.1554755
 30
0.0
 11
-69.91043
 21
-0.6503597
 31
0.0
  0
LINE
  8
0
  6
CONTINUOUS
 10
-69.91043
 20
-0.6503597
 30
0.0
 11
-67.4053142
 21
17.1744655
 31
0.0
  0
LINE
  8
0
  6
CONTINUOUS
 10
-64.7610253
 20
35.9895588
 30
0.0
 11
-46.9362001
 21
33.484443
 31
0.0
  0
LINE
  8
0
  6
CONTINUOUS
 10
-46.9362001
 20
33.484443
 30
0.0
 11
-49.4413159
 21
15.6596178
 31
0.0
  0
LINE
  8
0
  6
CONTINUOUS
 10
-49.4413159
 20
15.6596178
 30
0.0
 11
-67.2661411
 21
18.1647336
 31
0.0
  0
LINE
  8
0
  6
CONTINUOUS
 10
-67.2661411
 20
18.1647336
 30
0.0
 11
-64.7610253
 21
35.9895588
 31
0.0
  0
LINE
  8
0
  6
CONTINUOUS
 10
-62.1167364
 20
54.8046521
 30
0.0
 11
-44.2919112
 21
52.2995363
 31
0.0
  0
LINE
  8
0
  6
CONTINUOUS
 10
-44.2919112
 20
52.2995363
 30
0.0
 11
-46.797027
 21
34.4747111
 31
0.0
  0
LINE
  8
0
  6
CONTINUOUS
 10
-46.797027
 20
34.4747111
 30
0.0
 11
-64.6218522
 21
36.9798269
 31
0.0
  0
LINE
  8
0
  6
CONTINUOUS
 10
-64.6218522
 20
36.9798269
 30
0.0
 11
-62.1167364
 21
54.8046521
 31
0.0
  0
LINE
  8
0
  6
CONTINUOUS
 10
-59.4724475
 20
73.6197454
 30
0.0
 11
-41.6476223
 21
71.1146296
 31
0.0
  0
LINE
  8
0
  6
CONTINUOUS
 10
-41.6476223
 20
71.1146296
 30
0.0
 11
-44.1527381
 21
53.2898044
 31
0.0
  0
LINE
  8
0
  6
CONTINUOUS
 10
-44.1527381
 20
53.2898044
 30
0.0
 11
-61.9775633
 21
55.7949202
 31
0.0
  0
LINE
  8
0
  6
CONTINUOUS
 10
-61.9775633
 20
55.7949202
 30
0.0
 11
-59.4724475
 21
73.6197454
 31
0.0
  0
LINE
  8
0
  6
CONTINUOUS
 10
-87.7334594
 20
23.2170666
 30
0.0
 11
-69.8320653
 21
21.3355543
 31
0.0
  0
LINE
  8
0
  6
CONTINUOUS
 10
-69.8320653
 20
21.3355543
 30
0.0
 11
-71.7135776
 21
3.4341602
 31
0.0
  0
LINE
  8
0
  6
CONTINUOUS
 10
-71.7135776
 20
3.4341602
 30
0.0
 11
-89.6149717
 21
5.3156725
 31
0.0
  0
LINE
  8
0
  6
CONTINUOUS
 10
-89.6149717
 20
5.3156725
 30
0.0
 11
-87.7334594
 21
23.2170666
 31
0.0
  0
LINE
  8
0
  6
CONTINUOUS
 10
-85.7474186
 20
42.1129826
 30
0.0
 11
-67.8460245
 21
40.2314703
 31
0.0
  0
LINE
  8
0
  6
CONTINUOUS
 10
-67.8460245
 20
40.2314703
 30
0.0
 11
-69.7275368
 21
22.3300762
 31
0.0
  0
LINE
  8
0
  6
CONTINUOUS
 10
-69.7275368
 20
22.3300762
 30
0.0
 11
-87.6289309
 21
24.2115885
 31
0.0
  0
LINE
  8
0
  6
CONTINUOUS
 10
-87.6289309
 20
24.2115885
 30
0.0
 11
-85.7474186
 21
42.1129826
 31
0.0
  0
LINE
  8
0
  6
CONTINUOUS
 10
-83.7613778
 20
61.0088986
 30
0.0
 11
-65.8599837
 21
59.1273863
 31
0.0
  0
LINE
  8
0
  6
CONTINUOUS
 10
-65.8599837
 20
59.1273863
 30
0.0
 11
-67.741496
 21
41.2259922
 31
0.0
  0
LINE
  8
0
  6
CONTINUOUS
 10
-67.741496
 20
41.2259922
 30
0.0
 11
-85.6428901
 21
43.1075045
 31
0.0
  0
LINE
  8
0
  6
CONTINUOUS
 10
-85.6428901
 20
43.1075045
 30
0.0
 11
-83.7613778
 21
61.0088986
 31
0.0
  0
LINE
  8
0
  6
CONTINUOUS
 10
-81.775337
 20
79.9048146
 30
0.0
 11
-63.8739429
 21
78.0233023
 31
0.0
  0
LINE
  8
0
  6
CONTINUOUS
 10
-63.8739429
 20
78.0233023
 30
0.0
 11
-65.7554552
 21
60.1219082
 31
0.0
  0
LINE
  8
0
  6
CONTINUOUS
 10
-65.7554552
 20
60.1219082
 30
0.0
 11
-83.6568493
 21
62.0034205
 31
0.0
  0
LINE
  8
0
  6
CONTINUOUS
 10
-83.6568493
 20
62.0034205
 30
0.0
 11
-81.775337
 21
79.9048146
 31
0.0
  0
LINE
  8
0
  6
CONTINUOUS
 10
-108.2601049
 20
28.5465446
 30
0.0
 11
-90.303952
 21
27.2909281
 31
0.0
  0
LINE
  8
0
  6
CONTINUOUS
 10
-90.303952
 20
27.2909281
 30
0.0
 11
-91.5595685
 21
9.3347752
 31
0.0
  0
LINE
  8
0
  6
CONTINUOUS
 10
-91.5595685
 20
9.3347752
 30
0.0
 11
-109.5157214
 21
10.5903917
 31
0.0
  0
LINE
  8
0
  6
CONTINUOUS
 10
-109.5157214
 20
10.5903917
 30
0.0
 11
-108.2601049
 21
28.5465446
 31
0.0
  0
LINE
  8
0
  6
CONTINUOUS
 10
-106.9347319
 20
47.5002616
 30
0.0
 11
-88.978579
 21
46.2446451
 31
0.0
  0
LINE
  8
0
  6
CONTINUOUS
 10
-88.978579
 20
46.2446451
 30
0.0
 11
-90.2341955
 21
28.2884922
 31
0.0
  0
LINE
  8
0
  6
CONTINUOUS
 10
-90.2341955
 20
28.2884922
 30
0.0
 11
-108.1903484
 21
29.5441087
 31
0.0
  0
LINE
  8
0
  6
CONTINUOUS
 10
-108.1903484
 20
29.5441087
 30
0.0
 11
-106.9347319
 21
47.5002616
 31
0.0
  0
LINE
  8
0
  6
CONTINUOUS
 10
-105.6093589
 20
66.4539786
 30
0.0
 11
-87.653206
 21
65.1983621
 31
0.0
  0
LINE
  8
0
  6
CONTINUOUS
 10
-87.653206
 20
65.1983621
 30
0.0
 11
-88.9088225
 21
47.2422092
 31
0.0
  0
LINE
  8
0
  6
CONTINUOUS
 10
-88.9088225
 20
47.2422092
 30
0.0
 11
-106.8649754
 21
48.4978257
 31
0.0
  0
LINE
  8
0
  6
CONTINUOUS
 10
-106.8649754
 20
48.4978257
 30
0.0
 11
-105.6093589
 21
66.4539786
 31
0.0
  0
LINE
  8
0
  6
CONTINUOUS
 10
-104.2839859
 20
85.4076956
 30
0.0
 11
-86.327833
 21
84.1520791
 31
0.0
  0
LINE
  8
0
  6
CONTINUOUS
 10
-86.327833
 20
84.1520791
 30
0.0
 11
-87.5834495
 21
66.1959262
 31
0.0
  0
LINE
  8
0
  6
CONTINUOUS
 10
-87.5834495
 20
66.1959262
 30
0.0
 11
-105.5396024
 21
67.4515427
 31
0.0
  0
LINE
  8
0
  6
CONTINUOUS
 10
-105.5396024
 20
67.4515427
 30
0.0
 11
-104.2839859
 21
85.4076956
 31
0.0
  0
LINE
  8
0
  6
CONTINUOUS
 10
-129.4903915
 20
25.5749196
 30
0.0
 11
-111.5013566
 21
24.9467287
 31
0.0
  0
LINE
  8
0
  6
CONTINUOUS
 10
-111.5013566
 20
24.9467287
 30
0.0
 11
-112.1295475
 21
6.9576938
 31
0.0
  0
LINE
  8
0
  6
CONTINUOUS
 10
-112.1295475
 20
6.9576938
 30
0.0
 11
-130.1185824
 21
7.5858847
 31
0.0
  0
LINE
  8
0
  6
CONTINUOUS
 10
-130.1185824
 20
7.5858847
 30
0.0
 11
-129.4903915
 21
25.5749196
 31
0.0
  0
LINE
  8
0
  6
CONTINUOUS
 10
-128.8273011
 20
44.5633453
 30
0.0
 11
-110.8382662
 21
43.9351544
 31
0.0
  0
LINE
  8
0
  6
CONTINUOUS
 10
-110.8382662
 20
43.9351544
 30
0.0
 11
-111.4664571
 21
25.9461195
 31
0.0
  0
LINE
  8
0
  6
CONTINUOUS
 10
-111.4664571
 20
25.9461195
 30
0.0
 11
-129.455492
 21
26.5743104
 31
0.0
  0
LINE
  8
0
  6
CONTINUOUS
 10
-129.455492
 20
26.5743104
 30
0.0
 11
-128.8273011
 21
44.5633453
 31
0.0
  0
LINE
  8
0
  6
CONTINUOUS
 10
-128.1642107
 20
63.551771
 30
0.0
 11
-110.1751758
 21
62.9235801
 31
0.0
  0
LINE
  8
0
  6
CONTINUOUS
 10
-110.1751758
 20
62.9235801
 30
0.0
 11
-110.8033667
 21
44.9345452
 31
0.0
  0
LINE
  8
0
  6
CONTINUOUS
 10
-110.8033667
 20
44.9345452
 30
0.0
 11
-128.7924016
 21
45.5627361
 31
0.0
  0
LINE
  8
0
  6
CONTINUOUS
 10
-128.7924016
 20
45.5627361
 30
0.0
 11
-128.1642107
 21
63.551771
 31
0.0
  0
LINE
  8
0
  6
CONTINUOUS
 10
-127.5011203
 20
82.5401967
 30
0.0
 11
-109.5120854
 21
81.9120058
 31
0.0
  0
LINE
  8
0
  6
CONTINUOUS
 10
-109.5120854
 20
81.9120058
 30
0.0
 11
-110.1402763
 21
63.9229709
 31
0.0
  0
LINE
  8
0
  6
CONTINUOUS
 10
-110.1402763
 20
63.9229709
 30
0.0
 11
-128.1293112
 21
64.5511618
 31
0.0
  0
LINE
  8
0
  6
CONTINUOUS
 10
-128.1293112
 20
64.5511618
 30
0.0
 11
-127.5011203
 21
82.5401967
 31
0.0
  0
LINE
  8
0
  6
CONTINUOUS
 10
-150.6040368
 20
59.8641787
 30
0.0
 11
-132.6040368
 21
59.8641787
 31
0.0
  0
LINE
  8
0
  6
CONTINUOUS
 10
-132.6040368
 20
59.8641787
 30
0.0
 11
-132.6040368
 21
41.8641787
 31
0.0
  0
LINE
  8
0
  6
CONTINUOUS
 10
-132.6040368
 20
41.8641787
 30
0.0
 11
-150.6040368
 21
41.8641787
 31
0.0
  0
LINE
  8
0
  6
CONTINUOUS
 10
-150.6040368
 20
41.8641787
 30
0.0
 11
-150.6040368
 21
59.8641787
 31
0.0
  0
LINE
  8
0
  6
CONTINUOUS
 10
-150.6040368
 20
78.8641787
 30
0.0
 11
-132.6040368
 21
78.8641787
 31
0.0
  0
LINE
  8
0
  6
CONTINUOUS
 10
-132.6040368
 20
78.8641787
 30
0.0
 11
-132.6040368
 21
60.8641787
 31
0.0
  0
LINE
  8
0
  6
CONTINUOUS
 10
-132.6040368
 20
60.8641787
 30
0.0
 11
-150.6040368
 21
60.8641787
 31
0.0
  0
LINE
  8
0
  6
CONTINUOUS
 10
-150.6040368
 20
60.8641787
 30
0.0
 11
-150.6040368
 21
78.8641787
 31
0.0
  0
LINE
  8
0
  6
CONTINUOUS
 10
-194.1040368
 20
21.8641787
 30
0.0
 11
-132.6040368
 21
21.8641787
 31
0.0
  0
LINE
  8
0
  6
CONTINUOUS
 10
-132.6040368
 20
21.8641787
 30
0.0
 11
-132.6040368
 21
3.8641787
 31
0.0
  0
LINE
  8
0
  6
CONTINUOUS
 10
-132.6040368
 20
3.8641787
 30
0.0
 11
-194.1040368
 21
3.8641787
 31
0.0
  0
LINE
  8
0
  6
CONTINUOUS
 10
-194.1040368
 20
3.8641787
 30
0.0
 11
-194.1040368
 21
21.8641787
 31
0.0
  0
LINE
  8
0
  6
CONTINUOUS
 10
-194.1040368
 20
59.8641787
 30
0.0
 11
-154.1040368
 21
59.8641787
 31
0.0
  0
LINE
  8
0
  6
CONTINUOUS
 10
-154.1040368
 20
59.8641787
 30
0.0
 11
-154.1040368
 21
41.8641787
 31
0.0
  0
LINE
  8
0
  6
CONTINUOUS
 10
-154.1040368
 20
41.8641787
 30
0.0
 11
-194.1040368
 21
41.8641787
 31
0.0
  0
LINE
  8
0
  6
CONTINUOUS
 10
-194.1040368
 20
41.8641787
 30
0.0
 11
-194.1040368
 21
59.8641787
 31
0.0
  0
LINE
  8
0
  6
CONTINUOUS
 10
-172.1040368
 20
78.8641787
 30
0.0
 11
-154.1040368
 21
78.8641787
 31
0.0
  0
LINE
  8
0
  6
CONTINUOUS
 10
-154.1040368
 20
78.8641787
 30
0.0
 11
-154.1040368
 21
60.8641787
 31
0.0
  0
LINE
  8
0
  6
CONTINUOUS
 10
-154.1040368
 20
60.8641787
 30
0.0
 11
-172.1040368
 21
60.8641787
 31
0.0
  0
LINE
  8
0
  6
CONTINUOUS
 10
-172.1040368
 20
60.8641787
 30
0.0
 11
-172.1040368
 21
78.8641787
 31
0.0
  0
LINE
  8
0
  6
CONTINUOUS
 10
-194.1040368
 20
78.8641788
 30
0.0
 11
-176.1040368
 21
78.8641788
 31
0.0
  0
LINE
  8
0
  6
CONTINUOUS
 10
-176.1040368
 20
78.8641788
 30
0.0
 11
-176.1040368
 21
60.8641788
 31
0.0
  0
LINE
  8
0
  6
CONTINUOUS
 10
-176.1040368
 20
60.8641788
 30
0.0
 11
-194.1040368
 21
60.8641788
 31
0.0
  0
LINE
  8
0
  6
CONTINUOUS
 10
-194.1040368
 20
60.8641788
 30
0.0
 11
-194.1040368
 21
78.8641788
 31
0.0
  0
LINE
  8
0
  6
CONTINUOUS
 10
-150.6040368
 20
40.8641788
 30
0.0
 11
-132.6040368
 21
40.8641788
 31
0.0
  0
LINE
  8
0
  6
CONTINUOUS
 10
-132.6040368
 20
40.8641788
 30
0.0
 11
-132.6040368
 21
22.8641788
 31
0.0
  0
LINE
  8
0
  6
CONTINUOUS
 10
-132.6040368
 20
22.8641788
 30
0.0
 11
-150.6040368
 21
22.8641788
 31
0.0
  0
LINE
  8
0
  6
CONTINUOUS
 10
-150.6040368
 20
22.8641788
 30
0.0
 11
-150.6040368
 21
40.8641788
 31
0.0
  0
LINE
  8
0
  6
CONTINUOUS
 10
-194.1040368
 20
40.8641788
 30
0.0
 11
-154.1040368
 21
40.8641788
 31
0.0
  0
LINE
  8
0
  6
CONTINUOUS
 10
-154.1040368
 20
40.8641788
 30
0.0
 11
-154.1040368
 21
22.8641788
 31
0.0
  0
LINE
  8
0
  6
CONTINUOUS
 10
-154.1040368
 20
22.8641788
 30
0.0
 11
-194.1040368
 21
22.8641788
 31
0.0
  0
LINE
  8
0
  6
CONTINUOUS
 10
-194.1040368
 20
22.8641788
 30
0.0
 11
-194.1040368
 21
40.8641788
 31
0.0
  0
LINE
  8
0
  6
CONTINUOUS
 10
17.3440491
 20
88.5166422
 30
0.0
 11
35.3193807
 21
89.4586894
 31
0.0
  0
LINE
  8
0
  6
CONTINUOUS
 10
35.3193807
 20
89.4586894
 30
0.0
 11
36.2614279
 21
71.4833578
 31
0.0
  0
LINE
  8
0
  6
CONTINUOUS
 10
36.2614279
 20
71.4833578
 30
0.0
 11
18.2860963
 21
70.5413106
 31
0.0
  0
LINE
  8
0
  6
CONTINUOUS
 10
18.2860963
 20
70.5413106
 30
0.0
 11
17.3440491
 21
88.5166422
 31
0.0
  0
LINE
  8
0
  6
CONTINUOUS
 10
39.5657489
 20
95.2054451
 30
0.0
 11
57.467143
 21
97.0869574
 31
0.0
  0
LINE
  8
0
  6
CONTINUOUS
 10
57.467143
 20
97.0869574
 30
0.0
 11
59.3486553
 21
79.1855633
 31
0.0
  0
LINE
  8
0
  6
CONTINUOUS
 10
59.3486553
 20
79.1855633
 30
0.0
 11
41.4472612
 21
77.304051
 31
0.0
  0
LINE
  8
0
  6
CONTINUOUS
 10
41.4472612
 20
77.304051
 30
0.0
 11
39.5657489
 21
95.2054451
 31
0.0
  0
LINE
  8
0
  6
CONTINUOUS
 10
62.2453455
 20
104.0834324
 30
0.0
 11
80.2206771
 21
105.0254796
 31
0.0
  0
LINE
  8
0
  6
CONTINUOUS
 10
80.2206771
 20
105.0254796
 30
0.0
 11
81.1627243
 21
87.050148
 31
0.0
  0
LINE
  8
0
  6
CONTINUOUS
 10
81.1627243
 20
87.050148
 30
0.0
 11
63.1873927
 21
86.1081008
 31
0.0
  0
LINE
  8
0
  6
CONTINUOUS
 10
63.1873927
 20
86.1081008
 30
0.0
 11
62.2453455
 21
104.0834324
 31
0.0
  0
LINE
  8
0
  6
CONTINUOUS
 10
85.6725141
 20
105.7705172
 30
0.0
 11
103.6725141
 21
105.7705172
 31
0.0
  0
LINE
  8
0
  6
CONTINUOUS
 10
103.6725141
 20
105.7705172
 30
0.0
 11
103.6725141
 21
87.7705172
 31
0.0
  0
LINE
  8
0
  6
CONTINUOUS
 10
103.6725141
 20
87.7705172
 30
0.0
 11
85.6725141
 21
87.7705172
 31
0.0
  0
LINE
  8
0
  6
CONTINUOUS
 10
85.6725141
 20
87.7705172
 30
0.0
 11
85.6725141
 21
105.7705172
 31
0.0
  0
LINE
  8
0
  6
CONTINUOUS
 10
109.155872
 20
104.2292066
 30
0.0
 11
127.1312036
 21
103.2871594
 31
0.0
  0
LINE
  8
0
  6
CONTINUOUS
 10
127.1312036
 20
103.2871594
 30
0.0
 11
126.1891564
 21
85.3118278
 31
0.0
  0
LINE
  8
0
  6
CONTINUOUS
 10
126.1891564
 20
85.3118278
 30
0.0
 11
108.2138248
 21
86.253875
 31
0.0
  0
LINE
  8
0
  6
CONTINUOUS
 10
108.2138248
 20
86.253875
 30
0.0
 11
109.155872
 21
104.2292066
 31
0.0
  0
LINE
  8
0
  6
CONTINUOUS
 10
132.0196794
 20
101.0282205
 30
0.0
 11
149.995011
 21
100.0861733
 31
0.0
  0
LINE
  8
0
  6
CONTINUOUS
 10
149.995011
 20
100.0861733
 30
0.0
 11
149.0529638
 21
82.1108417
 31
0.0
  0
LINE
  8
0
  6
CONTINUOUS
 10
149.0529638
 20
82.1108417
 30
0.0
 11
131.0776322
 21
83.0528889
 31
0.0
  0
LINE
  8
0
  6
CONTINUOUS
 10
131.0776322
 20
83.0528889
 30
0.0
 11
132.0196794
 21
101.0282205
 31
0.0
  0
LINE
  8
0
  6
CONTINUOUS
 10
154.5048009
 20
99.3658041
 30
0.0
 11
172.5048009
 21
99.3658041
 31
0.0
  0
LINE
  8
0
  6
CONTINUOUS
 10
172.5048009
 20
99.3658041
 30
0.0
 11
172.5048009
 21
81.3658041
 31
0.0
  0
LINE
  8
0
  6
CONTINUOUS
 10
172.5048009
 20
81.3658041
 30
0.0
 11
154.5048009
 21
81.3658041
 31
0.0
  0
LINE
  8
0
  6
CONTINUOUS
 10
154.5048009
 20
81.3658041
 30
0.0
 11
154.5048009
 21
99.3658041
 31
0.0
  0
LINE
  8
0
  6
CONTINUOUS
 10
176.1048007
 20
99.3658041
 30
0.0
 11
194.1048007
 21
99.3658041
 31
0.0
  0
LINE
  8
0
  6
CONTINUOUS
 10
194.1048007
 20
99.3658041
 30
0.0
 11
194.1048007
 21
81.3658041
 31
0.0
  0
LINE
  8
0
  6
CONTINUOUS
 10
194.1048007
 20
81.3658041
 30
0.0
 11
176.1048007
 21
81.3658041
 31
0.0
  0
LINE
  8
0
  6
CONTINUOUS
 10
176.1048007
 20
81.3658041
 30
0.0
 11
176.1048007
 21
99.3658041
 31
0.0
  0
LINE
  8
0
  6
CONTINUOUS
 10
-35.3193807
 20
89.4586894
 30
0.0
 11
-17.3440491
 21
88.5166422
 31
0.0
  0
LINE
  8
0
  6
CONTINUOUS
 10
-17.3440491
 20
88.5166422
 30
0.0
 11
-18.2860963
 21
70.5413106
 31
0.0
  0
LINE
  8
0
  6
CONTINUOUS
 10
-18.2860963
 20
70.5413106
 30
0.0
 11
-36.2614279
 21
71.4833578
 31
0.0
  0
LINE
  8
0
  6
CONTINUOUS
 10
-36.2614279
 20
71.4833578
 30
0.0
 11
-35.3193807
 21
89.4586894
 31
0.0
  0
LINE
  8
0
  6
CONTINUOUS
 10
-57.467143
 20
97.0869574
 30
0.0
 11
-39.5657489
 21
95.2054451
 31
0.0
  0
LINE
  8
0
  6
CONTINUOUS
 10
-39.5657489
 20
95.2054451
 30
0.0
 11
-41.4472612
 21
77.304051
 31
0.0
  0
LINE
  8
0
  6
CONTINUOUS
 10
-41.4472612
 20
77.304051
 30
0.0
 11
-59.3486553
 21
79.1855633
 31
0.0
  0
LINE
  8
0
  6
CONTINUOUS
 10
-59.3486553
 20
79.1855633
 30
0.0
 11
-57.467143
 21
97.0869574
 31
0.0
  0
LINE
  8
0
  6
CONTINUOUS
 10
-80.2206771
 20
105.0254796
 30
0.0
 11
-62.2453455
 21
104.0834324
 31
0.0
  0
LINE
  8
0
  6
CONTINUOUS
 10
-62.2453455
 20
104.0834324
 30
0.0
 11
-63.1873927
 21
86.1081008
 31
0.0
  0
LINE
  8
0
  6
CONTINUOUS
 10
-63.1873927
 20
86.1081008
 30
0.0
 11
-81.1627243
 21
87.050148
 31
0.0
  0
LINE
  8
0
  6
CONTINUOUS
 10
-81.1627243
 20
87.050148
 30
0.0
 11
-80.2206771
 21
105.0254796
 31
0.0
  0
LINE
  8
0
  6
CONTINUOUS
 10
-103.6725141
 20
105.7705172
 30
0.0
 11
-85.6725141
 21
105.7705172
 31
0.0
  0
LINE
  8
0
  6
CONTINUOUS
 10
-85.6725141
 20
105.7705172
 30
0.0
 11
-85.6725141
 21
87.7705172
 31
0.0
  0
LINE
  8
0
  6
CONTINUOUS
 10
-85.6725141
 20
87.7705172
 30
0.0
 11
-103.6725141
 21
87.7705172
 31
0.0
  0
LINE
  8
0
  6
CONTINUOUS
 10
-103.6725141
 20
87.7705172
 30
0.0
 11
-103.6725141
 21
105.7705172
 31
0.0
  0
LINE
  8
0
  6
CONTINUOUS
 10
-127.1312036
 20
103.2871594
 30
0.0
 11
-109.155872
 21
104.2292066
 31
0.0
  0
LINE
  8
0
  6
CONTINUOUS
 10
-109.155872
 20
104.2292066
 30
0.0
 11
-108.2138248
 21
86.253875
 31
0.0
  0
LINE
  8
0
  6
CONTINUOUS
 10
-108.2138248
 20
86.253875
 30
0.0
 11
-126.1891564
 21
85.3118278
 31
0.0
  0
LINE
  8
0
  6
CONTINUOUS
 10
-126.1891564
 20
85.3118278
 30
0.0
 11
-127.1312036
 21
103.2871594
 31
0.0
  0
LINE
  8
0
  6
CONTINUOUS
 10
-149.995011
 20
100.0861733
 30
0.0
 11
-132.0196794
 21
101.0282205
 31
0.0
  0
LINE
  8
0
  6
CONTINUOUS
 10
-132.0196794
 20
101.0282205
 30
0.0
 11
-131.0776322
 21
83.0528889
 31
0.0
  0
LINE
  8
0
  6
CONTINUOUS
 10
-131.0776322
 20
83.0528889
 30
0.0
 11
-149.0529638
 21
82.1108417
 31
0.0
  0
LINE
  8
0
  6
CONTINUOUS
 10
-149.0529638
 20
82.1108417
 30
0.0
 11
-149.995011
 21
100.0861733
 31
0.0
  0
LINE
  8
0
  6
CONTINUOUS
 10
-172.5048009
 20
99.3658041
 30
0.0
 11
-154.5048009
 21
99.3658041
 31
0.0
  0
LINE
  8
0
  6
CONTINUOUS
 10
-154.5048009
 20
99.3658041
 30
0.0
 11
-154.5048009
 21
81.3658041
 31
0.0
  0
LINE
  8
0
  6
CONTINUOUS
 10
-154.5048009
 20
81.3658041
 30
0.0
 11
-172.5048009
 21
81.3658041
 31
0.0
  0
LINE
  8
0
  6
CONTINUOUS
 10
-172.5048009
 20
81.3658041
 30
0.0
 11
-172.5048009
 21
99.3658041
 31
0.0
  0
LINE
  8
0
  6
CONTINUOUS
 10
-194.1048007
 20
99.3658041
 30
0.0
 11
-176.1048007
 21
99.3658041
 31
0.0
  0
LINE
  8
0
  6
CONTINUOUS
 10
-176.1048007
 20
99.3658041
 30
0.0
 11
-176.1048007
 21
81.3658041
 31
0.0
  0
LINE
  8
0
  6
CONTINUOUS
 10
-176.1048007
 20
81.3658041
 30
0.0
 11
-194.1048007
 21
81.3658041
 31
0.0
  0
LINE
  8
0
  6
CONTINUOUS
 10
-194.1048007
 20
81.3658041
 30
0.0
 11
-194.1048007
 21
99.3658041
 31
0.0
  0
LINE
  8
0
  6
CONTINUOUS
 10
2.25
 20
-16.0
 30
0.0
 11
87.75
 21
-16.0
 31
0.0
  0
LINE
  8
0
  6
CONTINUOUS
 10
87.75
 20
-16.0
 30
0.0
 11
87.75
 21
-34.0
 31
0.0
  0
LINE
  8
0
  6
CONTINUOUS
 10
87.75
 20
-34.0
 30
0.0
 11
2.25
 21
-34.0
 31
0.0
  0
LINE
  8
0
  6
CONTINUOUS
 10
2.25
 20
-34.0
 30
0.0
 11
2.25
 21
-16.0
 31
0.0
  0
LINE
  8
0
  6
CONTINUOUS
 10
94.1550771
 20
-15.9636359
 30
0.0
 11
121.0893064
 21
-14.0802112
 31
0.0
  0
LINE
  8
0
  6
CONTINUOUS
 10
121.0893064
 20
-14.0802112
 30
0.0
 11
122.3449229
 21
-32.0363641
 31
0.0
  0
LINE
  8
0
  6
CONTINUOUS
 10
122.3449229
 20
-32.0363641
 30
0.0
 11
95.4106936
 21
-33.9197888
 31
0.0
  0
LINE
  8
0
  6
CONTINUOUS
 10
95.4106936
 20
-33.9197888
 30
0.0
 11
94.1550771
 21
-15.9636359
 31
0.0
  0
LINE
  8
0
  6
CONTINUOUS
 10
126.7280714
 20
-13.6494574
 30
0.0
 11
153.4653092
 21
-9.8917837
 31
0.0
  0
LINE
  8
0
  6
CONTINUOUS
 10
153.4653092
 20
-9.8917837
 30
0.0
 11
155.970425
 21
-27.716609
 31
0.0
  0
LINE
  8
0
  6
CONTINUOUS
 10
155.970425
 20
-27.716609
 30
0.0
 11
129.2331872
 21
-31.4742827
 31
0.0
  0
LINE
  8
0
  6
CONTINUOUS
 10
129.2331872
 20
-31.4742827
 30
0.0
 11
126.7280714
 21
-13.6494574
 31
0.0
  0
LINE
  8
0
  6
CONTINUOUS
 10
159.1148327
 20
-9.3780626
 30
0.0
 11
194.3281463
 21
-1.8932418
 31
0.0
  0
LINE
  8
0
  6
CONTINUOUS
 10
194.3281463
 20
-1.8932418
 30
0.0
 11
198.0705567
 21
-19.4998986
 31
0.0
  0
LINE
  8
0
  6
CONTINUOUS
 10
198.0705567
 20
-19.4998986
 30
0.0
 11
162.8572431
 21
-26.9847194
 31
0.0
  0
LINE
  8
0
  6
CONTINUOUS
 10
162.8572431
 20
-26.9847194
 30
0.0
 11
159.1148327
 21
-9.3780626
 31
0.0
  0
LINE
  8
0
  6
CONTINUOUS
 10
-87.75
 20
-16.0
 30
0.0
 11
-2.25
 21
-16.0
 31
0.0
  0
LINE
  8
0
  6
CONTINUOUS
 10
-2.25
 20
-16.0
 30
0.0
 11
-2.25
 21
-34.0
 31
0.0
  0
LINE
  8
0
  6
CONTINUOUS
 10
-2.25
 20
-34.0
 30
0.0
 11
-87.75
 21
-34.0
 31
0.0
  0
LINE
  8
0
  6
CONTINUOUS
 10
-87.75
 20
-34.0
 30
0.0
 11
-87.75
 21
-16.0
 31
0.0
  0
LINE
  8
0
  6
CONTINUOUS
 10
-121.0893064
 20
-14.0802112
 30
0.0
 11
-94.1550771
 21
-15.9636359
 31
0.0
  0
LINE
  8
0
  6
CONTINUOUS
 10
-94.1550771
 20
-15.9636359
 30
0.0
 11
-95.4106936
 21
-33.9197888
 31
0.0
  0
LINE
  8
0
  6
CONTINUOUS
 10
-95.4106936
 20
-33.9197888
 30
0.0
 11
-122.3449229
 21
-32.0363641
 31
0.0
  0
LINE
  8
0
  6
CONTINUOUS
 10
-122.3449229
 20
-32.0363641
 30
0.0
 11
-121.0893064
 21
-14.0802112
 31
0.0
  0
LINE
  8
0
  6
CONTINUOUS
 10
-153.4653092
 20
-9.8917837
 30
0.0
 11
-126.7280714
 21
-13.6494574
 31
0.0
  0
LINE
  8
0
  6
CONTINUOUS
 10
-126.7280714
 20
-13.6494574
 30
0.0
 11
-129.2331872
 21
-31.4742827
 31
0.0
  0
LINE
  8
0
  6
CONTINUOUS
 10
-129.2331872
 20
-31.4742827
 30
0.0
 11
-155.970425
 21
-27.716609
 31
0.0
  0
LINE
  8
0
  6
CONTINUOUS
 10
-155.970425
 20
-27.716609
 30
0.0
 11
-153.4653092
 21
-9.8917837
 31
0.0
  0
LINE
  8
0
  6
CONTINUOUS
 10
-194.3281463
 20
-1.8932418
 30
0.0
 11
-159.1148327
 21
-9.3780626
 31
0.0
  0
LINE
  8
0
  6
CONTINUOUS
 10
-159.1148327
 20
-9.3780626
 30
0.0
 11
-162.8572431
 21
-26.9847194
 31
0.0
  0
LINE
  8
0
  6
CONTINUOUS
 10
-162.8572431
 20
-26.9847194
 30
0.0
 11
-198.0705567
 21
-19.4998986
 31
0.0
  0
LINE
  8
0
  6
CONTINUOUS
 10
-198.0705567
 20
-19.4998986
 30
0.0
 11
-194.3281463
 21
-1.8932418
 31
0.0
  0
LINE
  8
0
  6
CONTINUOUS
 10
211.0
 20
-16.0
 30
0.0
 11
229.0
 21
-16.0
 31
0.0
  0
LINE
  8
0
  6
CONTINUOUS
 10
229.0
 20
-16.0
 30
0.0
 11
229.0
 21
-34.0
 31
0.0
  0
LINE
  8
0
  6
CONTINUOUS
 10
229.0
 20
-34.0
 30
0.0
 11
211.0
 21
-34.0
 31
0.0
  0
LINE
  8
0
  6
CONTINUOUS
 10
211.0
 20
-34.0
 30
0.0
 11
211.0
 21
-16.0
 31
0.0
  0
LINE
  8
0
  6
CONTINUOUS
 10
211.0
 20
80.35
 30
0.0
 11
229.0
 21
80.35
 31
0.0
  0
LINE
  8
0
  6
CONTINUOUS
 10
229.0
 20
80.35
 30
0.0
 11
229.0
 21
62.35
 31
0.0
  0
LINE
  8
0
  6
CONTINUOUS
 10
229.0
 20
62.35
 30
0.0
 11
211.0
 21
62.35
 31
0.0
  0
LINE
  8
0
  6
CONTINUOUS
 10
211.0
 20
62.35
 30
0.0
 11
211.0
 21
80.35
 31
0.0
  0
LINE
  8
0
  6
CONTINUOUS
 10
211.0
 20
99.35
 30
0.0
 11
229.0
 21
99.35
 31
0.0
  0
LINE
  8
0
  6
CONTINUOUS
 10
229.0
 20
99.35
 30
0.0
 11
229.0
 21
81.35
 31
0.0
  0
LINE
  8
0
  6
CONTINUOUS
 10
229.0
 20
81.35
 30
0.0
 11
211.0
 21
81.35
 31
0.0
  0
LINE
  8
0
  6
CONTINUOUS
 10
211.0
 20
81.35
 30
0.0
 11
211.0
 21
99.35
 31
0.0
  0
LINE
  8
0
  6
CONTINUOUS
 10
232.0
 20
-16.0
 30
0.0
 11
250.0
 21
-16.0
 31
0.0
  0
LINE
  8
0
  6
CONTINUOUS
 10
250.0
 20
-16.0
 30
0.0
 11
250.0
 21
-34.0
 31
0.0
  0
LINE
  8
0
  6
CONTINUOUS
 10
250.0
 20
-34.0
 30
0.0
 11
232.0
 21
-34.0
 31
0.0
  0
LINE
  8
0
  6
CONTINUOUS
 10
232.0
 20
-34.0
 30
0.0
 11
232.0
 21
-16.0
 31
0.0
  0
LINE
  8
0
  6
CONTINUOUS
 10
232.0
 20
3.0
 30
0.0
 11
250.0
 21
3.0
 31
0.0
  0
LINE
  8
0
  6
CONTINUOUS
 10
250.0
 20
3.0
 30
0.0
 11
250.0
 21
-15.0
 31
0.0
  0
LINE
  8
0
  6
CONTINUOUS
 10
250.0
 20
-15.0
 30
0.0
 11
232.0
 21
-15.0
 31
0.0
  0
LINE
  8
0
  6
CONTINUOUS
 10
232.0
 20
-15.0
 30
0.0
 11
232.0
 21
3.0
 31
0.0
  0
LINE
  8
0
  6
CONTINUOUS
 10
205.0
 20
60.0
 30
0.0
 11
277.0
 21
60.0
 31
0.0
  0
LINE
  8
0
  6
CONTINUOUS
 10
277.0
 20
60.0
 30
0.0
 11
277.0
 21
6.0
 31
0.0
  0
LINE
  8
0
  6
CONTINUOUS
 10
277.0
 20
6.0
 30
0.0
 11
205.0
 21
6.0
 31
0.0
  0
LINE
  8
0
  6
CONTINUOUS
 10
205.0
 20
6.0
 30
0.0
 11
205.0
 21
60.0
 31
0.0
  0
LINE
  8
0
  6
CONTINUOUS
 10
232.0
 20
80.35
 30
0.0
 11
250.0
 21
80.35
 31
0.0
  0
LINE
  8
0
  6
CONTINUOUS
 10
250.0
 20
80.35
 30
0.0
 11
250.0
 21
62.35
 31
0.0
  0
LINE
  8
0
  6
CONTINUOUS
 10
250.0
 20
62.35
 30
0.0
 11
232.0
 21
62.35
 31
0.0
  0
LINE
  8
0
  6
CONTINUOUS
 10
232.0
 20
62.35
 30
0.0
 11
232.0
 21
80.35
 31
0.0
  0
LINE
  8
0
  6
CONTINUOUS
 10
232.0
 20
99.35
 30
0.0
 11
250.0
 21
99.35
 31
0.0
  0
LINE
  8
0
  6
CONTINUOUS
 10
250.0
 20
99.35
 30
0.0
 11
250.0
 21
81.35
 31
0.0
  0
LINE
  8
0
  6
CONTINUOUS
 10
250.0
 20
81.35
 30
0.0
 11
232.0
 21
81.35
 31
0.0
  0
LINE
  8
0
  6
CONTINUOUS
 10
232.0
 20
81.35
 30
0.0
 11
232.0
 21
99.35
 31
0.0
  0
LINE
  8
0
  6
CONTINUOUS
 10
253.0
 20
-16.0
 30
0.0
 11
271.0
 21
-16.0
 31
0.0
  0
LINE
  8
0
  6
CONTINUOUS
 10
271.0
 20
-16.0
 30
0.0
 11
271.0
 21
-34.0
 31
0.0
  0
LINE
  8
0
  6
CONTINUOUS
 10
271.0
 20
-34.0
 30
0.0
 11
253.0
 21
-34.0
 31
0.0
  0
LINE
  8
0
  6
CONTINUOUS
 10
253.0
 20
-34.0
 30
0.0
 11
253.0
 21
-16.0
 31
0.0
  0
LINE
  8
0
  6
CONTINUOUS
 10
253.0
 20
80.35
 30
0.0
 11
271.0
 21
80.35
 31
0.0
  0
LINE
  8
0
  6
CONTINUOUS
 10
271.0
 20
80.35
 30
0.0
 11
271.0
 21
62.35
 31
0.0
  0
LINE
  8
0
  6
CONTINUOUS
 10
271.0
 20
62.35
 30
0.0
 11
253.0
 21
62.35
 31
0.0
  0
LINE
  8
0
  6
CONTINUOUS
 10
253.0
 20
62.35
 30
0.0
 11
253.0
 21
80.35
 31
0.0
  0
LINE
  8
0
  6
CONTINUOUS
 10
253.0
 20
99.35
 30
0.0
 11
271.0
 21
99.35
 31
0.0
  0
LINE
  8
0
  6
CONTINUOUS
 10
271.0
 20
99.35
 30
0.0
 11
271.0
 21
81.35
 31
0.0
  0
LINE
  8
0
  6
CONTINUOUS
 10
271.0
 20
81.35
 30
0.0
 11
253.0
 21
81.35
 31
0.0
  0
LINE
  8
0
  6
CONTINUOUS
 10
253.0
 20
81.35
 30
0.0
 11
253.0
 21
99.35
 31
0.0
  0
LINE
  8
0
  6
CONTINUOUS
 10
291.0
 20
85.0
 30
0.0
 11
309.0
 21
85.0
 31
0.0
  0
LINE
  8
0
  6
CONTINUOUS
 10
309.0
 20
85.0
 30
0.0
 11
309.0
 21
-15.0
 31
0.0
  0
LINE
  8
0
  6
CONTINUOUS
 10
309.0
 20
-15.0
 30
0.0
 11
291.0
 21
-15.0
 31
0.0
  0
LINE
  8
0
  6
CONTINUOUS
 10
291.0
 20
-15.0
 30
0.0
 11
291.0
 21
85.0
 31
0.0
  0
LINE
  8
0
  6
CONTINUOUS
 10
312.0
 20
85.0
 30
0.0
 11
330.0
 21
85.0
 31
0.0
  0
LINE
  8
0
  6
CONTINUOUS
 10
330.0
 20
85.0
 30
0.0
 11
330.0
 21
-15.0
 31
0.0
  0
LINE
  8
0
  6
CONTINUOUS
 10
330.0
 20
-15.0
 30
0.0
 11
312.0
 21
-15.0
 31
0.0
  0
LINE
  8
0
  6
CONTINUOUS
 10
312.0
 20
-15.0
 30
0.0
 11
312.0
 21
85.0
 31
0.0
  0
LINE
  8
0
  6
CONTINUOUS
 10
333.0
 20
85.0
 30
0.0
 11
351.0
 21
85.0
 31
0.0
  0
LINE
  8
0
  6
CONTINUOUS
 10
351.0
 20
85.0
 30
0.0
 11
351.0
 21
-15.0
 31
0.0
  0
LINE
  8
0
  6
CONTINUOUS
 10
351.0
 20
-15.0
 30
0.0
 11
333.0
 21
-15.0
 31
0.0
  0
LINE
  8
0
  6
CONTINUOUS
 10
333.0
 20
-15.0
 30
0.0
 11
333.0
 21
85.0
 31
0.0
  0
LINE
  8
0
 10
132.6
 20
41.86
 30
0.0
 11
150.6
 21
59.86
 31
0.0
  0
LINE
  8
0
 10
150.6
 20
41.86
 30
0.0
 11
132.6
 21
59.86
 31
0.0
  0
LINE
  8
0
 10
154.1
 20
41.86
 30
0.0
 11
194.1
 21
59.86
 31
0.0
  0
LINE
  8
0
 10
154.1
 20
59.86
 30
0.0
 11
194.1
 21
41.86
 31
0.0
  0
LINE
  8
0
 10
-122.34
 20
-32.04
 30
0.0
 11
-94.16
 21
-15.96
 31
0.0
  0
LINE
  8
0
 10
-121.09
 20
-14.08
 30
0.0
 11
-95.41
 21
-33.92
 31
0.0
  0
LINE
  8
0
 10
69.83
 20
21.34
 30
0.0
 11
89.61
 21
5.32
 31
0.0
  0
LINE
  8
0
 10
71.71000000000001
 20
3.43
 30
0.0
 11
87.73
 21
23.22
 31
0.0
  0
LINE
  8
0
 10
159.11
 20
-9.38
 30
0.0
 11
198.07
 21
-19.5
 31
0.0
  0
LINE
  8
0
 10
162.86
 20
-26.98
 30
0.0
 11
194.33
 21
-1.8900000000000001
 31
0.0
  0
LINE
  8
0
 10
-87.63
 20
24.21
 30
0.0
 11
-67.85
 21
40.230000000000004
 31
0.0
  0
LINE
  8
0
 10
-85.75
 20
42.11
 30
0.0
 11
-69.73
 21
22.330000000000002
 31
0.0
  0
LINE
  8
0
 10
253.0
 20
81.35000000000001
 30
0.0
 11
271.0
 21
99.35000000000001
 31
0.0
  0
LINE
  8
0
 10
271.0
 20
81.35000000000001
 30
0.0
 11
253.0
 21
99.35000000000001
 31
0.0
  0
LINE
  8
0
 10
-67.27
 20
18.16
 30
0.0
 11
-46.94
 21
33.480000000000004
 31
0.0
  0
LINE
  8
0
 10
-64.76
 20
35.99
 30
0.0
 11
-49.44
 21
15.66
 31
0.0
  0
LINE
  8
0
 10
211.0
 20
81.35000000000001
 30
0.0
 11
229.0
 21
99.35000000000001
 31
0.0
  0
LINE
  8
0
 10
229.0
 20
81.35000000000001
 30
0.0
 11
211.0
 21
99.35000000000001
 31
0.0
  0
LINE
  8
0
 10
111.5
 20
24.95
 30
0.0
 11
130.12
 21
7.59
 31
0.0
  0
LINE
  8
0
 10
129.49
 20
25.57
 30
0.0
 11
112.13
 21
6.96
 31
0.0
  0
LINE
  8
0
 10
154.1
 20
41.86
 30
0.0
 11
194.1
 21
59.86
 31
0.0
  0
LINE
  8
0
 10
194.1
 20
41.86
 30
0.0
 11
154.1
 21
59.86
 31
0.0
  0
LINE
  8
0
 10
291.0
 20
-15.0
 30
0.0
 11
309.0
 21
85.0
 31
0.0
  0
LINE
  8
0
 10
309.0
 20
-15.0
 30
0.0
 11
291.0
 21
85.0
 31
0.0
  0
LINE
  8
0
 10
132.6
 20
22.86
 30
0.0
 11
194.1
 21
40.86
 31
0.0
  0
LINE
  8
0
 10
132.6
 20
40.86
 30
0.0
 11
194.1
 21
22.86
 31
0.0
  0
LINE
  8
0
 10
-150.6
 20
22.86
 30
0.0
 11
-132.6
 21
40.86
 31
0.0
  0
LINE
  8
0
 10
-150.6
 20
40.86
 30
0.0
 11
-132.6
 21
22.86
 31
0.0
  0
LINE
  8
0
 10
108.21000000000001
 20
86.25
 30
0.0
 11
127.13000000000001
 21
103.29
 31
0.0
  0
LINE
  8
0
 10
126.19
 20
85.31
 30
0.0
 11
109.16
 21
104.23
 31
0.0
  0
LINE
  8
0
 10
205.0
 20
6.0
 30
0.0
 11
277.0
 21
60.0
 31
0.0
  0
LINE
  8
0
 10
277.0
 20
6.0
 30
0.0
 11
205.0
 21
60.0
 31
0.0
  0
LINE
  8
0
 10
232.0
 20
62.35
 30
0.0
 11
250.0
 21
80.35000000000001
 31
0.0
  0
LINE
  8
0
 10
232.0
 20
80.35000000000001
 30
0.0
 11
250.0
 21
62.35
 31
0.0
  0
LINE
  8
0
 10
62.25
 20
104.08
 30
0.0
 11
81.16
 21
87.05
 31
0.0
  0
LINE
  8
0
 10
80.22
 20
105.03
 30
0.0
 11
63.190000000000005
 21
86.11
 31
0.0
  0
LINE
  8
0
 10
88.98
 20
46.24
 30
0.0
 11
108.19
 21
29.54
 31
0.0
  0
LINE
  8
0
 10
90.23
 20
28.29
 30
0.0
 11
106.93
 21
47.5
 31
0.0
  0
LINE
  8
0
 10
-127.13000000000001
 20
103.29
 30
0.0
 11
-108.21000000000001
 21
86.25
 31
0.0
  0
LINE
  8
0
 10
-109.16
 20
104.23
 30
0.0
 11
-126.19
 21
85.31
 31
0.0
  0
LINE
  8
0
 10
-194.1
 20
41.86
 30
0.0
 11
-154.1
 21
59.86
 31
0.0
  0
LINE
  8
0
 10
-194.1
 20
59.86
 30
0.0
 11
-154.1
 21
41.86
 31
0.0
  0
LINE
  8
0
 10
108.21000000000001
 20
86.25
 30
0.0
 11
127.13000000000001
 21
103.29
 31
0.0
  0
LINE
  8
0
 10
109.16
 20
104.23
 30
0.0
 11
126.19
 21
85.31
 31
0.0
  0
LINE
  8
0
 10
205.0
 20
6.0
 30
0.0
 11
277.0
 21
60.0
 31
0.0
  0
LINE
  8
0
 10
205.0
 20
60.0
 30
0.0
 11
277.0
 21
6.0
 31
0.0
  0
LINE
  8
0
 10
-150.6
 20
41.86
 30
0.0
 11
-132.6
 21
59.86
 31
0.0
  0
LINE
  8
0
 10
-132.6
 20
41.86
 30
0.0
 11
-150.6
 21
59.86
 31
0.0
  0
LINE
  8
0
 10
-150.0
 20
100.09
 30
0.0
 11
-131.08
 21
83.05
 31
0.0
  0
LINE
  8
0
 10
-132.02
 20
101.03
 30
0.0
 11
-149.05
 21
82.11
 31
0.0
  0
LINE
  8
0
 10
159.11
 20
-9.38
 30
0.0
 11
198.07
 21
-19.5
 31
0.0
  0
LINE
  8
0
 10
194.33
 20
-1.8900000000000001
 30
0.0
 11
162.86
 21
-26.98
 31
0.0
  0
LINE
  8
0
 10
46.94
 20
33.480000000000004
 30
0.0
 11
67.27
 21
18.16
 31
0.0
  0
LINE
  8
0
 10
49.44
 20
15.66
 30
0.0
 11
64.76
 21
35.99
 31
0.0
  0
LINE
  8
0
 10
-64.62
 20
36.980000000000004
 30
0.0
 11
-44.29
 21
52.300000000000004
 31
0.0
  0
LINE
  8
0
 10
-46.800000000000004
 20
34.47
 30
0.0
 11
-62.120000000000005
 21
54.800000000000004
 31
0.0
  0
LINE
  8
0
 10
110.84
 20
43.94
 30
0.0
 11
129.46
 21
26.57
 31
0.0
  0
LINE
  8
0
 10
128.83
 20
44.56
 30
0.0
 11
111.47
 21
25.95
 31
0.0
  0
LINE
  8
0
 10
87.65
 20
65.2
 30
0.0
 11
106.86
 21
48.5
 31
0.0
  0
LINE
  8
0
 10
105.61
 20
66.45
 30
0.0
 11
88.91
 21
47.24
 31
0.0
  0
LINE
  8
0
 10
65.86
 20
59.13
 30
0.0
 11
85.64
 21
43.11
 31
0.0
  0
LINE
  8
0
 10
83.76
 20
61.01
 30
0.0
 11
67.74
 21
41.230000000000004
 31
0.0
  0
LINE
  8
0
 10
-194.1
 20
81.37
 30
0.0
 11
-176.1
 21
99.37
 31
0.0
  0
LINE
  8
0
 10
-176.1
 20
81.37
 30
0.0
 11
-194.1
 21
99.37
 31
0.0
  0
LINE
  8
0
 10
-129.46
 20
26.57
 30
0.0
 11
-110.84
 21
43.94
 31
0.0
  0
LINE
  8
0
 10
-111.47
 20
25.95
 30
0.0
 11
-128.83
 21
44.56
 31
0.0
  0
LINE
  8
0
 10
154.5
 20
81.37
 30
0.0
 11
172.5
 21
99.37
 31
0.0
  0
LINE
  8
0
 10
172.5
 20
81.37
 30
0.0
 11
154.5
 21
99.37
 31
0.0
  0
LINE
  8
0
 10
-172.1
 20
60.86
 30
0.0
 11
-154.1
 21
78.86
 31
0.0
  0
LINE
  8
0
 10
-172.1
 20
78.86
 30
0.0
 11
-154.1
 21
60.86
 31
0.0
  0
LINE
  8
0
 10
94.16
 20
-15.96
 30
0.0
 11
122.34
 21
-32.04
 31
0.0
  0
LINE
  8
0
 10
121.09
 20
-14.08
 30
0.0
 11
95.41
 21
-33.92
 31
0.0
  0
LINE
  8
0
 10
-50.43
 20
-7.3
 30
0.0
 11
-29.57
 21
7.3
 31
0.0
  0
LINE
  8
0
 10
-32.7
 20
-10.43
 30
0.0
 11
-47.300000000000004
 21
10.43
 31
0.0
  0
LINE
  8
0
 10
-127.13000000000001
 20
103.29
 30
0.0
 11
-108.21000000000001
 21
86.25
 31
0.0
  0
LINE
  8
0
 10
-126.19
 20
85.31
 30
0.0
 11
-109.16
 21
104.23
 31
0.0
  0
LINE
  8
0
 10
-194.1
 20
81.37
 30
0.0
 11
-176.1
 21
99.37
 31
0.0
  0
LINE
  8
0
 10
-194.1
 20
99.37
 30
0.0
 11
-176.1
 21
81.37
 31
0.0
  0
LINE
  8
0
 10
132.6
 20
41.86
 30
0.0
 11
150.6
 21
59.86
 31
0.0
  0
LINE
  8
0
 10
132.6
 20
59.86
 30
0.0
 11
150.6
 21
41.86
 31
0.0
  0
LINE
  8
0
 10
-36.26
 20
71.48
 30
0.0
 11
-17.34
 21
88.52
 31
0.0
  0
LINE
  8
0
 10
-35.32
 20
89.46000000000001
 30
0.0
 11
-18.29
 21
70.54
 31
0.0
  0
LINE
  8
0
 10
-36.26
 20
71.48
 30
0.0
 11
-17.34
 21
88.52
 31
0.0
  0
LINE
  8
0
 10
-18.29
 20
70.54
 30
0.0
 11
-35.32
 21
89.46000000000001
 31
0.0
  0
LINE
  8
0
 10
333.0
 20
-15.0
 30
0.0
 11
351.0
 21
85.0
 31
0.0
  0
LINE
  8
0
 10
333.0
 20
85.0
 30
0.0
 11
351.0
 21
-15.0
 31
0.0
  0
LINE
  8
0
 10
63.870000000000005
 20
78.02
 30
0.0
 11
83.66
 21
62.0
 31
0.0
  0
LINE
  8
0
 10
65.76
 20
60.120000000000005
 30
0.0
 11
81.78
 21
79.9
 31
0.0
  0
LINE
  8
0
 10
109.51
 20
81.91
 30
0.0
 11
128.13
 21
64.55
 31
0.0
  0
LINE
  8
0
 10
110.14
 20
63.92
 30
0.0
 11
127.5
 21
82.54
 31
0.0
  0
LINE
  8
0
 10
67.85
 20
40.230000000000004
 30
0.0
 11
87.63
 21
24.21
 31
0.0
  0
LINE
  8
0
 10
85.75
 20
42.11
 30
0.0
 11
69.73
 21
22.330000000000002
 31
0.0
  0
LINE
  8
0
 10
-59.35
 20
79.19
 30
0.0
 11
-39.57
 21
95.21000000000001
 31
0.0
  0
LINE
  8
0
 10
-41.45
 20
77.3
 30
0.0
 11
-57.47
 21
97.09
 31
0.0
  0
LINE
  8
0
 10
-129.46
 20
26.57
 30
0.0
 11
-110.84
 21
43.94
 31
0.0
  0
LINE
  8
0
 10
-128.83
 20
44.56
 30
0.0
 11
-111.47
 21
25.95
 31
0.0
  0
LINE
  8
0
 10
-81.16
 20
87.05
 30
0.0
 11
-62.25
 21
104.08
 31
0.0
  0
LINE
  8
0
 10
-80.22
 20
105.03
 30
0.0
 11
-63.190000000000005
 21
86.11
 31
0.0
  0
LINE
  8
0
 10
110.18
 20
62.92
 30
0.0
 11
128.79
 21
45.56
 31
0.0
  0
LINE
  8
0
 10
110.8
 20
44.93
 30
0.0
 11
128.16
 21
63.550000000000004
 31
0.0
  0
LINE
  8
0
 10
176.1
 20
81.37
 30
0.0
 11
194.1
 21
99.37
 31
0.0
  0
LINE
  8
0
 10
176.1
 20
99.37
 30
0.0
 11
194.1
 21
81.37
 31
0.0
  0
LINE
  8
0
 10
-40.53
 20
48.83
 30
0.0
 11
-19.68
 21
63.43
 31
0.0
  0
LINE
  8
0
 10
-37.4
 20
66.56
 30
0.0
 11
-22.8
 21
45.71
 31
0.0
  0
LINE
  8
0
 10
-43.83
 20
30.12
 30
0.0
 11
-22.98
 21
44.72
 31
0.0
  0
LINE
  8
0
 10
-26.1
 20
27.0
 30
0.0
 11
-40.7
 21
47.85
 31
0.0
  0
LINE
  8
0
 10
132.6
 20
60.86
 30
0.0
 11
150.6
 21
78.86
 31
0.0
  0
LINE
  8
0
 10
132.6
 20
78.86
 30
0.0
 11
150.6
 21
60.86
 31
0.0
  0
LINE
  8
0
 10
26.27
 20
26.01
 30
0.0
 11
47.13
 21
11.41
 31
0.0
  0
LINE
  8
0
 10
44.0
 20
29.14
 30
0.0
 11
29.400000000000002
 21
8.290000000000001
 31
0.0
  0
LINE
  8
0
 10
232.0
 20
81.35000000000001
 30
0.0
 11
250.0
 21
99.35000000000001
 31
0.0
  0
LINE
  8
0
 10
232.0
 20
99.35000000000001
 30
0.0
 11
250.0
 21
81.35000000000001
 31
0.0
  0
LINE
  8
0
 10
-194.1
 20
60.86
 30
0.0
 11
-176.1
 21
78.86
 31
0.0
  0
LINE
  8
0
 10
-194.1
 20
78.86
 30
0.0
 11
-176.1
 21
60.86
 31
0.0
  0
LINE
  8
0
 10
-105.54
 20
67.45
 30
0.0
 11
-86.33
 21
84.15
 31
0.0
  0
LINE
  8
0
 10
-87.58
 20
66.2
 30
0.0
 11
-104.28
 21
85.41
 31
0.0
  0
LINE
  8
0
 10
-109.52
 20
10.59
 30
0.0
 11
-90.3
 21
27.29
 31
0.0
  0
LINE
  8
0
 10
-91.56
 20
9.33
 30
0.0
 11
-108.26
 21
28.55
 31
0.0
  0
LINE
  8
0
 10
-81.16
 20
87.05
 30
0.0
 11
-62.25
 21
104.08
 31
0.0
  0
LINE
  8
0
 10
-63.190000000000005
 20
86.11
 30
0.0
 11
-80.22
 21
105.03
 31
0.0
  0
LINE
  8
0
 10
29.57
 20
7.3
 30
0.0
 11
50.43
 21
-7.3
 31
0.0
  0
LINE
  8
0
 10
47.300000000000004
 20
10.43
 30
0.0
 11
32.7
 21
-10.43
 31
0.0
  0
LINE
  8
0
 10
29.57
 20
7.3
 30
0.0
 11
50.43
 21
-7.3
 31
0.0
  0
LINE
  8
0
 10
32.7
 20
-10.43
 30
0.0
 11
47.300000000000004
 21
10.43
 31
0.0
  0
LINE
  8
0
 10
291.0
 20
-15.0
 30
0.0
 11
309.0
 21
85.0
 31
0.0
  0
LINE
  8
0
 10
291.0
 20
85.0
 30
0.0
 11
309.0
 21
-15.0
 31
0.0
  0
LINE
  8
0
 10
232.0
 20
-15.0
 30
0.0
 11
250.0
 21
3.0
 31
0.0
  0
LINE
  8
0
 10
250.0
 20
-15.0
 30
0.0
 11
232.0
 21
3.0
 31
0.0
  0
LINE
  8
0
 10
86.33
 20
84.15
 30
0.0
 11
105.54
 21
67.45
 31
0.0
  0
LINE
  8
0
 10
87.58
 20
66.2
 30
0.0
 11
104.28
 21
85.41
 31
0.0
  0
LINE
  8
0
 10
17.34
 20
88.52
 30
0.0
 11
36.26
 21
71.48
 31
0.0
  0
LINE
  8
0
 10
18.29
 20
70.54
 30
0.0
 11
35.32
 21
89.46000000000001
 31
0.0
  0
LINE
  8
0
 10
62.25
 20
104.08
 30
0.0
 11
81.16
 21
87.05
 31
0.0
  0
LINE
  8
0
 10
63.190000000000005
 20
86.11
 30
0.0
 11
80.22
 21
105.03
 31
0.0
  0
LINE
  8
0
 10
-85.64
 20
43.11
 30
0.0
 11
-65.86
 21
59.13
 31
0.0
  0
LINE
  8
0
 10
-83.76
 20
61.01
 30
0.0
 11
-67.74
 21
41.230000000000004
 31
0.0
  0
LINE
  8
0
 10
132.6
 20
22.86
 30
0.0
 11
194.1
 21
40.86
 31
0.0
  0
LINE
  8
0
 10
194.1
 20
22.86
 30
0.0
 11
132.6
 21
40.86
 31
0.0
  0
LINE
  8
0
 10
2.25
 20
-34.0
 30
0.0
 11
87.75
 21
-16.0
 31
0.0
  0
LINE
  8
0
 10
2.25
 20
-16.0
 30
0.0
 11
87.75
 21
-34.0
 31
0.0
  0
LINE
  8
0
 10
211.0
 20
-34.0
 30
0.0
 11
229.0
 21
-16.0
 31
0.0
  0
LINE
  8
0
 10
229.0
 20
-34.0
 30
0.0
 11
211.0
 21
-16.0
 31
0.0
  0
LINE
  8
0
 10
90.3
 20
27.29
 30
0.0
 11
109.52
 21
10.59
 31
0.0
  0
LINE
  8
0
 10
91.56
 20
9.33
 30
0.0
 11
108.26
 21
28.55
 31
0.0
  0
LINE
  8
0
 10
312.0
 20
-15.0
 30
0.0
 11
330.0
 21
85.0
 31
0.0
  0
LINE
  8
0
 10
330.0
 20
-15.0
 30
0.0
 11
312.0
 21
85.0
 31
0.0
  0
LINE
  8
0
 10
-83.66
 20
62.0
 30
0.0
 11
-63.870000000000005
 21
78.02
 31
0.0
  0
LINE
  8
0
 10
-65.76
 20
60.120000000000005
 30
0.0
 11
-81.78
 21
79.9
 31
0.0
  0
LINE
  8
0
 10
132.6
 20
3.86
 30
0.0
 11
194.1
 21
21.86
 31
0.0
  0
LINE
  8
0
 10
132.6
 20
21.86
 30
0.0
 11
194.1
 21
3.86
 31
0.0
  0
LINE
  8
0
 10
176.1
 20
81.37
 30
0.0
 11
194.1
 21
99.37
 31
0.0
  0
LINE
  8
0
 10
194.1
 20
81.37
 30
0.0
 11
176.1
 21
99.37
 31
0.0
  0
LINE
  8
0
 10
132.6
 20
60.86
 30
0.0
 11
150.6
 21
78.86
 31
0.0
  0
LINE
  8
0
 10
150.6
 20
60.86
 30
0.0
 11
132.6
 21
78.86
 31
0.0
  0
LINE
  8
0
 10
-43.83
 20
30.12
 30
0.0
 11
-22.98
 21
44.72
 31
0.0
  0
LINE
  8
0
 10
-40.7
 20
47.85
 30
0.0
 11
-26.1
 21
27.0
 31
0.0
  0
LINE
  8
0
 10
90.3
 20
27.29
 30
0.0
 11
109.52
 21
10.59
 31
0.0
  0
LINE
  8
0
 10
108.26
 20
28.55
 30
0.0
 11
91.56
 21
9.33
 31
0.0
  0
LINE
  8
0
 10
-194.1
 20
41.86
 30
0.0
 11
-154.1
 21
59.86
 31
0.0
  0
LINE
  8
0
 10
-154.1
 20
41.86
 30
0.0
 11
-194.1
 21
59.86
 31
0.0
  0
LINE
  8
0
 10
312.0
 20
-15.0
 30
0.0
 11
330.0
 21
85.0
 31
0.0
  0
LINE
  8
0
 10
312.0
 20
85.0
 30
0.0
 11
330.0
 21
-15.0
 31
0.0
  0
LINE
  8
0
 10
-130.12
 20
7.59
 30
0.0
 11
-111.5
 21
24.95
 31
0.0
  0
LINE
  8
0
 10
-129.49
 20
25.57
 30
0.0
 11
-112.13
 21
6.96
 31
0.0
  0
LINE
  8
0
 10
-150.6
 20
60.86
 30
0.0
 11
-132.6
 21
78.86
 31
0.0
  0
LINE
  8
0
 10
-150.6
 20
78.86
 30
0.0
 11
-132.6
 21
60.86
 31
0.0
  0
LINE
  8
0
 10
2.25
 20
-34.0
 30
0.0
 11
87.75
 21
-16.0
 31
0.0
  0
LINE
  8
0
 10
87.75
 20
-34.0
 30
0.0
 11
2.25
 21
-16.0
 31
0.0
  0
LINE
  8
0
 10
253.0
 20
-34.0
 30
0.0
 11
271.0
 21
-16.0
 31
0.0
  0
LINE
  8
0
 10
271.0
 20
-34.0
 30
0.0
 11
253.0
 21
-16.0
 31
0.0
  0
LINE
  8
0
 10
41.65
 20
71.11
 30
0.0
 11
61.980000000000004
 21
55.79
 31
0.0
  0
LINE
  8
0
 10
59.47
 20
73.62
 30
0.0
 11
44.15
 21
53.29
 31
0.0
  0
LINE
  8
0
 10
-64.62
 20
36.980000000000004
 30
0.0
 11
-44.29
 21
52.300000000000004
 31
0.0
  0
LINE
  8
0
 10
-62.120000000000005
 20
54.800000000000004
 30
0.0
 11
-46.800000000000004
 21
34.47
 31
0.0
  0
LINE
  8
0
 10
-155.97
 20
-27.72
 30
0.0
 11
-126.73
 21
-13.65
 31
0.0
  0
LINE
  8
0
 10
-129.23
 20
-31.470000000000002
 30
0.0
 11
-153.47
 21
-9.89
 31
0.0
  0
LINE
  8
0
 10
63.870000000000005
 20
78.02
 30
0.0
 11
83.66
 21
62.0
 31
0.0
  0
LINE
  8
0
 10
81.78
 20
79.9
 30
0.0
 11
65.76
 21
60.120000000000005
 31
0.0
  0
LINE
  8
0
 10
132.6
 20
3.86
 30
0.0
 11
194.1
 21
21.86
 31
0.0
  0
LINE
  8
0
 10
194.1
 20
3.86
 30
0.0
 11
132.6
 21
21.86
 31
0.0
  0
LINE
  8
0
 10
-108.19
 20
29.54
 30
0.0
 11
-88.98
 21
46.24
 31
0.0
  0
LINE
  8
0
 10
-90.23
 20
28.29
 30
0.0
 11
-106.93
 21
47.5
 31
0.0
  0
LINE
  8
0
 10
126.73
 20
-13.65
 30
0.0
 11
155.97
 21
-27.72
 31
0.0
  0
LINE
  8
0
 10
153.47
 20
-9.89
 30
0.0
 11
129.23
 21
-31.470000000000002
 31
0.0
  0
LINE
  8
0
 10
22.98
 20
44.72
 30
0.0
 11
43.83
 21
30.12
 31
0.0
  0
LINE
  8
0
 10
26.1
 20
27.0
 30
0.0
 11
40.7
 21
47.85
 31
0.0
  0
LINE
  8
0
 10
-67.27
 20
18.16
 30
0.0
 11
-46.94
 21
33.480000000000004
 31
0.0
  0
LINE
  8
0
 10
-49.44
 20
15.66
 30
0.0
 11
-64.76
 21
35.99
 31
0.0
  0
LINE
  8
0
 10
154.1
 20
60.86
 30
0.0
 11
194.1
 21
78.86
 31
0.0
  0
LINE
  8
0
 10
154.1
 20
78.86
 30
0.0
 11
194.1
 21
60.86
 31
0.0
  0
LINE
  8
0
 10
19.68
 20
63.43
 30
0.0
 11
40.53
 21
48.83
 31
0.0
  0
LINE
  8
0
 10
22.8
 20
45.71
 30
0.0
 11
37.4
 21
66.56
 31
0.0
  0
LINE
  8
0
 10
-87.63
 20
24.21
 30
0.0
 11
-67.85
 21
40.230000000000004
 31
0.0
  0
LINE
  8
0
 10
-69.73
 20
22.330000000000002
 30
0.0
 11
-85.75
 21
42.11
 31
0.0
  0
LINE
  8
0
 10
253.0
 20
-34.0
 30
0.0
 11
271.0
 21
-16.0
 31
0.0
  0
LINE
  8
0
 10
253.0
 20
-16.0
 30
0.0
 11
271.0
 21
-34.0
 31
0.0
  0
LINE
  8
0
 10
-128.13
 20
64.55
 30
0.0
 11
-109.51
 21
81.91
 31
0.0
  0
LINE
  8
0
 10
-110.14
 20
63.92
 30
0.0
 11
-127.5
 21
82.54
 31
0.0
  0
LINE
  8
0
 10
-198.07
 20
-19.5
 30
0.0
 11
-159.11
 21
-9.38
 31
0.0
  0
LINE
  8
0
 10
-194.33
 20
-1.8900000000000001
 30
0.0
 11
-162.86
 21
-26.98
 31
0.0
  0
LINE
  8
0
 10
-130.12
 20
7.59
 30
0.0
 11
-111.5
 21
24.95
 31
0.0
  0
LINE
  8
0
 10
-112.13
 20
6.96
 30
0.0
 11
-129.49
 21
25.57
 31
0.0
  0
LINE
  8
0
 10
65.86
 20
59.13
 30
0.0
 11
85.64
 21
43.11
 31
0.0
  0
LINE
  8
0
 10
67.74
 20
41.230000000000004
 30
0.0
 11
83.76
 21
61.01
 31
0.0
  0
LINE
  8
0
 10
-85.64
 20
43.11
 30
0.0
 11
-65.86
 21
59.13
 31
0.0
  0
LINE
  8
0
 10
-67.74
 20
41.230000000000004
 30
0.0
 11
-83.76
 21
61.01
 31
0.0
  0
LINE
  8
0
 10
211.0
 20
62.35
 30
0.0
 11
229.0
 21
80.35000000000001
 31
0.0
  0
LINE
  8
0
 10
229.0
 20
62.35
 30
0.0
 11
211.0
 21
80.35000000000001
 31
0.0
  0
LINE
  8
0
 10
-155.97
 20
-27.72
 30
0.0
 11
-126.73
 21
-13.65
 31
0.0
  0
LINE
  8
0
 10
-153.47
 20
-9.89
 30
0.0
 11
-129.23
 21
-31.470000000000002
 31
0.0
  0
LINE
  8
0
 10
-150.6
 20
22.86
 30
0.0
 11
-132.6
 21
40.86
 31
0.0
  0
LINE
  8
0
 10
-132.6
 20
22.86
 30
0.0
 11
-150.6
 21
40.86
 31
0.0
  0
LINE
  8
0
 10
-128.79
 20
45.56
 30
0.0
 11
-110.18
 21
62.92
 31
0.0
  0
LINE
  8
0
 10
-110.8
 20
44.93
 30
0.0
 11
-128.16
 21
63.550000000000004
 31
0.0
  0
LINE
  8
0
 10
211.0
 20
81.35000000000001
 30
0.0
 11
229.0
 21
99.35000000000001
 31
0.0
  0
LINE
  8
0
 10
211.0
 20
99.35000000000001
 30
0.0
 11
229.0
 21
81.35000000000001
 31
0.0
  0
LINE
  8
0
 10
-150.0
 20
100.09
 30
0.0
 11
-131.08
 21
83.05
 31
0.0
  0
LINE
  8
0
 10
-149.05
 20
82.11
 30
0.0
 11
-132.02
 21
101.03
 31
0.0
  0
LINE
  8
0
 10
211.0
 20
62.35
 30
0.0
 11
229.0
 21
80.35000000000001
 31
0.0
  0
LINE
  8
0
 10
211.0
 20
80.35000000000001
 30
0.0
 11
229.0
 21
62.35
 31
0.0
  0
LINE
  8
0
 10
22.98
 20
44.72
 30
0.0
 11
43.83
 21
30.12
 31
0.0
  0
LINE
  8
0
 10
40.7
 20
47.85
 30
0.0
 11
26.1
 21
27.0
 31
0.0
  0
LINE
  8
0
 10
-89.61
 20
5.32
 30
0.0
 11
-69.83
 21
21.34
 31
0.0
  0
LINE
  8
0
 10
-71.71000000000001
 20
3.43
 30
0.0
 11
-87.73
 21
23.22
 31
0.0
  0
LINE
  8
0
 10
-194.1
 20
3.86
 30
0.0
 11
-132.6
 21
21.86
 31
0.0
  0
LINE
  8
0
 10
-132.6
 20
3.86
 30
0.0
 11
-194.1
 21
21.86
 31
0.0
  0
LINE
  8
0
 10
67.85
 20
40.230000000000004
 30
0.0
 11
87.63
 21
24.21
 31
0.0
  0
LINE
  8
0
 10
69.73
 20
22.330000000000002
 30
0.0
 11
85.75
 21
42.11
 31
0.0
  0
LINE
  8
0
 10
85.67
 20
87.77
 30
0.0
 11
103.67
 21
105.77
 31
0.0
  0
LINE
  8
0
 10
85.67
 20
105.77
 30
0.0
 11
103.67
 21
87.77
 31
0.0
  0
LINE
  8
0
 10
-103.67
 20
87.77
 30
0.0
 11
-85.67
 21
105.77
 31
0.0
  0
LINE
  8
0
 10
-103.67
 20
105.77
 30
0.0
 11
-85.67
 21
87.77
 31
0.0
  0
LINE
  8
0
 10
-50.43
 20
-7.3
 30
0.0
 11
-29.57
 21
7.3
 31
0.0
  0
LINE
  8
0
 10
-47.300000000000004
 20
10.43
 30
0.0
 11
-32.7
 21
-10.43
 31
0.0
  0
LINE
  8
0
 10
-69.91
 20
-0.65
 30
0.0
 11
-49.58
 21
14.67
 31
0.0
  0
LINE
  8
0
 10
-52.09
 20
-3.16
 30
0.0
 11
-67.41
 21
17.17
 31
0.0
  0
LINE
  8
0
 10
-69.91
 20
-0.65
 30
0.0
 11
-49.58
 21
14.67
 31
0.0
  0
LINE
  8
0
 10
-67.41
 20
17.17
 30
0.0
 11
-52.09
 21
-3.16
 31
0.0
  0
LINE
  8
0
 10
-194.1
 20
3.86
 30
0.0
 11
-132.6
 21
21.86
 31
0.0
  0
LINE
  8
0
 10
-194.1
 20
21.86
 30
0.0
 11
-132.6
 21
3.86
 31
0.0
  0
LINE
  8
0
 10
232.0
 20
-15.0
 30
0.0
 11
250.0
 21
3.0
 31
0.0
  0
LINE
  8
0
 10
232.0
 20
3.0
 30
0.0
 11
250.0
 21
-15.0
 31
0.0
  0
LINE
  8
0
 10
-61.980000000000004
 20
55.79
 30
0.0
 11
-41.65
 21
71.11
 31
0.0
  0
LINE
  8
0
 10
-44.15
 20
53.29
 30
0.0
 11
-59.47
 21
73.62
 31
0.0
  0
LINE
  8
0
 10
-106.86
 20
48.5
 30
0.0
 11
-87.65
 21
65.2
 31
0.0
  0
LINE
  8
0
 10
-88.91
 20
47.24
 30
0.0
 11
-105.61
 21
66.45
 31
0.0
  0
LINE
  8
0
 10
49.58
 20
14.67
 30
0.0
 11
69.91
 21
-0.65
 31
0.0
  0
LINE
  8
0
 10
67.41
 20
17.17
 30
0.0
 11
52.09
 21
-3.16
 31
0.0
  0
LINE
  8
0
 10
154.1
 20
60.86
 30
0.0
 11
194.1
 21
78.86
 31
0.0
  0
LINE
  8
0
 10
194.1
 20
60.86
 30
0.0
 11
154.1
 21
78.86
 31
0.0
  0
LINE
  8
0
 10
-87.75
 20
-34.0
 30
0.0
 11
-2.25
 21
-16.0
 31
0.0
  0
LINE
  8
0
 10
-87.75
 20
-16.0
 30
0.0
 11
-2.25
 21
-34.0
 31
0.0
  0
LINE
  8
0
 10
87.65
 20
65.2
 30
0.0
 11
106.86
 21
48.5
 31
0.0
  0
LINE
  8
0
 10
88.91
 20
47.24
 30
0.0
 11
105.61
 21
66.45
 31
0.0
  0
LINE
  8
0
 10
46.94
 20
33.480000000000004
 30
0.0
 11
67.27
 21
18.16
 31
0.0
  0
LINE
  8
0
 10
64.76
 20
35.99
 30
0.0
 11
49.44
 21
15.66
 31
0.0
  0
LINE
  8
0
 10
-150.6
 20
60.86
 30
0.0
 11
-132.6
 21
78.86
 31
0.0
  0
LINE
  8
0
 10
-132.6
 20
60.86
 30
0.0
 11
-150.6
 21
78.86
 31
0.0
  0
LINE
  8
0
 10
-128.79
 20
45.56
 30
0.0
 11
-110.18
 21
62.92
 31
0.0
  0
LINE
  8
0
 10
-128.16
 20
63.550000000000004
 30
0.0
 11
-110.8
 21
44.93
 31
0.0
  0
LINE
  8
0
 10
232.0
 20
-34.0
 30
0.0
 11
250.0
 21
-16.0
 31
0.0
  0
LINE
  8
0
 10
250.0
 20
-34.0
 30
0.0
 11
232.0
 21
-16.0
 31
0.0
  0
LINE
  8
0
 10
110.84
 20
43.94
 30
0.0
 11
129.46
 21
26.57
 31
0.0
  0
LINE
  8
0
 10
111.47
 20
25.95
 30
0.0
 11
128.83
 21
44.56
 31
0.0
  0
LINE
  8
0
 10
39.57
 20
95.21000000000001
 30
0.0
 11
59.35
 21
79.19
 31
0.0
  0
LINE
  8
0
 10
57.47
 20
97.09
 30
0.0
 11
41.45
 21
77.3
 31
0.0
  0
LINE
  8
0
 10
111.5
 20
24.95
 30
0.0
 11
130.12
 21
7.59
 31
0.0
  0
LINE
  8
0
 10
112.13
 20
6.96
 30
0.0
 11
129.49
 21
25.57
 31
0.0
  0
LINE
  8
0
 10
-47.13
 20
11.41
 30
0.0
 11
-26.27
 21
26.01
 31
0.0
  0
LINE
  8
0
 10
-29.400000000000002
 20
8.290000000000001
 30
0.0
 11
-44.0
 21
29.14
 31
0.0
  0
LINE
  8
0
 10
88.98
 20
46.24
 30
0.0
 11
108.19
 21
29.54
 31
0.0
  0
LINE
  8
0
 10
106.93
 20
47.5
 30
0.0
 11
90.23
 21
28.29
 31
0.0
  0
LINE
  8
0
 10
-47.13
 20
11.41
 30
0.0
 11
-26.27
 21
26.01
 31
0.0
  0
LINE
  8
0
 10
-44.0
 20
29.14
 30
0.0
 11
-29.400000000000002
 21
8.290000000000001
 31
0.0
  0
LINE
  8
0
 10
39.57
 20
95.21000000000001
 30
0.0
 11
59.35
 21
79.19
 31
0.0
  0
LINE
  8
0
 10
41.45
 20
77.3
 30
0.0
 11
57.47
 21
97.09
 31
0.0
  0
LINE
  8
0
 10
86.33
 20
84.15
 30
0.0
 11
105.54
 21
67.45
 31
0.0
  0
LINE
  8
0
 10
104.28
 20
85.41
 30
0.0
 11
87.58
 21
66.2
 31
0.0
  0
LINE
  8
0
 10
-172.1
 20
60.86
 30
0.0
 11
-154.1
 21
78.86
 31
0.0
  0
LINE
  8
0
 10
-154.1
 20
60.86
 30
0.0
 11
-172.1
 21
78.86
 31
0.0
  0
LINE
  8
0
 10
110.18
 20
62.92
 30
0.0
 11
128.79
 21
45.56
 31
0.0
  0
LINE
  8
0
 10
128.16
 20
63.550000000000004
 30
0.0
 11
110.8
 21
44.93
 31
0.0
  0
LINE
  8
0
 10
94.16
 20
-15.96
 30
0.0
 11
122.34
 21
-32.04
 31
0.0
  0
LINE
  8
0
 10
95.41
 20
-33.92
 30
0.0
 11
121.09
 21
-14.08
 31
0.0
  0
LINE
  8
0
 10
49.58
 20
14.67
 30
0.0
 11
69.91
 21
-0.65
 31
0.0
  0
LINE
  8
0
 10
52.09
 20
-3.16
 30
0.0
 11
67.41
 21
17.17
 31
0.0
  0
LINE
  8
0
 10
-40.53
 20
48.83
 30
0.0
 11
-19.68
 21
63.43
 31
0.0
  0
LINE
  8
0
 10
-22.8
 20
45.71
 30
0.0
 11
-37.4
 21
66.56
 31
0.0
  0
LINE
  8
0
 10
-194.1
 20
22.86
 30
0.0
 11
-154.1
 21
40.86
 31
0.0
  0
LINE
  8
0
 10
-154.1
 20
22.86
 30
0.0
 11
-194.1
 21
40.86
 31
0.0
  0
LINE
  8
0
 10
126.73
 20
-13.65
 30
0.0
 11
155.97
 21
-27.72
 31
0.0
  0
LINE
  8
0
 10
129.23
 20
-31.470000000000002
 30
0.0
 11
153.47
 21
-9.89
 31
0.0
  0
LINE
  8
0
 10
232.0
 20
81.35000000000001
 30
0.0
 11
250.0
 21
99.35000000000001
 31
0.0
  0
LINE
  8
0
 10
250.0
 20
81.35000000000001
 30
0.0
 11
232.0
 21
99.35000000000001
 31
0.0
  0
LINE
  8
0
 10
-61.980000000000004
 20
55.79
 30
0.0
 11
-41.65
 21
71.11
 31
0.0
  0
LINE
  8
0
 10
-59.47
 20
73.62
 30
0.0
 11
-44.15
 21
53.29
 31
0.0
  0
LINE
  8
0
 10
109.51
 20
81.91
 30
0.0
 11
128.13
 21
64.55
 31
0.0
  0
LINE
  8
0
 10
127.5
 20
82.54
 30
0.0
 11
110.14
 21
63.92
 31
0.0
  0
LINE
  8
0
 10
-150.6
 20
41.86
 30
0.0
 11
-132.6
 21
59.86
 31
0.0
  0
LINE
  8
0
 10
-150.6
 20
59.86
 30
0.0
 11
-132.6
 21
41.86
 31
0.0
  0
LINE
  8
0
 10
19.68
 20
63.43
 30
0.0
 11
40.53
 21
48.83
 31
0.0
  0
LINE
  8
0
 10
37.4
 20
66.56
 30
0.0
 11
22.8
 21
45.71
 31
0.0
  0
LINE
  8
0
 10
-172.5
 20
81.37
 30
0.0
 11
-154.5
 21
99.37
 31
0.0
  0
LINE
  8
0
 10
-154.5
 20
81.37
 30
0.0
 11
-172.5
 21
99.37
 31
0.0
  0
LINE
  8
0
 10
232.0
 20
62.35
 30
0.0
 11
250.0
 21
80.35000000000001
 31
0.0
  0
LINE
  8
0
 10
250.0
 20
62.35
 30
0.0
 11
232.0
 21
80.35000000000001
 31
0.0
  0
LINE
  8
0
 10
-194.1
 20
60.86
 30
0.0
 11
-176.1
 21
78.86
 31
0.0
  0
LINE
  8
0
 10
-176.1
 20
60.86
 30
0.0
 11
-194.1
 21
78.86
 31
0.0
  0
LINE
  8
0
 10
-103.67
 20
87.77
 30
0.0
 11
-85.67
 21
105.77
 31
0.0
  0
LINE
  8
0
 10
-85.67
 20
87.77
 30
0.0
 11
-103.67
 21
105.77
 31
0.0
  0
LINE
  8
0
 10
-172.5
 20
81.37
 30
0.0
 11
-154.5
 21
99.37
 31
0.0
  0
LINE
  8
0
 10
-172.5
 20
99.37
 30
0.0
 11
-154.5
 21
81.37
 31
0.0
  0
LINE
  8
0
 10
-198.07
 20
-19.5
 30
0.0
 11
-159.11
 21
-9.38
 31
0.0
  0
LINE
  8
0
 10
-162.86
 20
-26.98
 30
0.0
 11
-194.33
 21
-1.8900000000000001
 31
0.0
  0
LINE
  8
0
 10
-108.19
 20
29.54
 30
0.0
 11
-88.98
 21
46.24
 31
0.0
  0
LINE
  8
0
 10
-106.93
 20
47.5
 30
0.0
 11
-90.23
 21
28.29
 31
0.0
  0
LINE
  8
0
 10
211.0
 20
-34.0
 30
0.0
 11
229.0
 21
-16.0
 31
0.0
  0
LINE
  8
0
 10
211.0
 20
-16.0
 30
0.0
 11
229.0
 21
-34.0
 31
0.0
  0
LINE
  8
0
 10
44.29
 20
52.300000000000004
 30
0.0
 11
64.62
 21
36.980000000000004
 31
0.0
  0
LINE
  8
0
 10
46.800000000000004
 20
34.47
 30
0.0
 11
62.120000000000005
 21
54.800000000000004
 31
0.0
  0
LINE
  8
0
 10
-89.61
 20
5.32
 30
0.0
 11
-69.83
 21
21.34
 31
0.0
  0
LINE
  8
0
 10
-87.73
 20
23.22
 30
0.0
 11
-71.71000000000001
 21
3.43
 31
0.0
  0
LINE
  8
0
 10
69.83
 20
21.34
 30
0.0
 11
89.61
 21
5.32
 31
0.0
  0
LINE
  8
0
 10
87.73
 20
23.22
 30
0.0
 11
71.71000000000001
 21
3.43
 31
0.0
  0
LINE
  8
0
 10
-87.75
 20
-34.0
 30
0.0
 11
-2.25
 21
-16.0
 31
0.0
  0
LINE
  8
0
 10
-2.25
 20
-34.0
 30
0.0
 11
-87.75
 21
-16.0
 31
0.0
  0
LINE
  8
0
 10
232.0
 20
-34.0
 30
0.0
 11
250.0
 21
-16.0
 31
0.0
  0
LINE
  8
0
 10
232.0
 20
-16.0
 30
0.0
 11
250.0
 21
-34.0
 31
0.0
  0
LINE
  8
0
 10
-83.66
 20
62.0
 30
0.0
 11
-63.870000000000005
 21
78.02
 31
0.0
  0
LINE
  8
0
 10
-81.78
 20
79.9
 30
0.0
 11
-65.76
 21
60.120000000000005
 31
0.0
  0
LINE
  8
0
 10
131.08
 20
83.05
 30
0.0
 11
150.0
 21
100.09
 31
0.0
  0
LINE
  8
0
 10
132.02
 20
101.03
 30
0.0
 11
149.05
 21
82.11
 31
0.0
  0
LINE
  8
0
 10
131.08
 20
83.05
 30
0.0
 11
150.0
 21
100.09
 31
0.0
  0
LINE
  8
0
 10
149.05
 20
82.11
 30
0.0
 11
132.02
 21
101.03
 31
0.0
  0
LINE
  8
0
 10
253.0
 20
62.35
 30
0.0
 11
271.0
 21
80.35000000000001
 31
0.0
  0
LINE
  8
0
 10
271.0
 20
62.35
 30
0.0
 11
253.0
 21
80.35000000000001
 31
0.0
  0
LINE
  8
0
 10
253.0
 20
81.35000000000001
 30
0.0
 11
271.0
 21
99.35000000000001
 31
0.0
  0
LINE
  8
0
 10
253.0
 20
99.35000000000001
 30
0.0
 11
271.0
 21
81.35000000000001
 31
0.0
  0
LINE
  8
0
 10
-105.54
 20
67.45
 30
0.0
 11
-86.33
 21
84.15
 31
0.0
  0
LINE
  8
0
 10
-104.28
 20
85.41
 30
0.0
 11
-87.58
 21
66.2
 31
0.0
  0
LINE
  8
0
 10
17.34
 20
88.52
 30
0.0
 11
36.26
 21
71.48
 31
0.0
  0
LINE
  8
0
 10
35.32
 20
89.46000000000001
 30
0.0
 11
18.29
 21
70.54
 31
0.0
  0
LINE
  8
0
 10
26.27
 20
26.01
 30
0.0
 11
47.13
 21
11.41
 31
0.0
  0
LINE
  8
0
 10
29.400000000000002
 20
8.290000000000001
 30
0.0
 11
44.0
 21
29.14
 31
0.0
  0
LINE
  8
0
 10
85.67
 20
87.77
 30
0.0
 11
103.67
 21
105.77
 31
0.0
  0
LINE
  8
0
 10
103.67
 20
87.77
 30
0.0
 11
85.67
 21
105.77
 31
0.0
  0
LINE
  8
0
 10
44.29
 20
52.300000000000004
 30
0.0
 11
64.62
 21
36.980000000000004
 31
0.0
  0
LINE
  8
0
 10
62.120000000000005
 20
54.800000000000004
 30
0.0
 11
46.800000000000004
 21
34.47
 31
0.0
  0
LINE
  8
0
 10
41.65
 20
71.11
 30
0.0
 11
61.980000000000004
 21
55.79
 31
0.0
  0
LINE
  8
0
 10
44.15
 20
53.29
 30
0.0
 11
59.47
 21
73.62
 31
0.0
  0
LINE
  8
0
 10
-109.52
 20
10.59
 30
0.0
 11
-90.3
 21
27.29
 31
0.0
  0
LINE
  8
0
 10
-108.26
 20
28.55
 30
0.0
 11
-91.56
 21
9.33
 31
0.0
  0
LINE
  8
0
 10
253.0
 20
62.35
 30
0.0
 11
271.0
 21
80.35000000000001
 31
0.0
  0
LINE
  8
0
 10
253.0
 20
80.35000000000001
 30
0.0
 11
271.0
 21
62.35
 31
0.0
  0
LINE
  8
0
 10
-106.86
 20
48.5
 30
0.0
 11
-87.65
 21
65.2
 31
0.0
  0
LINE
  8
0
 10
-105.61
 20
66.45
 30
0.0
 11
-88.91
 21
47.24
 31
0.0
  0
LINE
  8
0
 10
-59.35
 20
79.19
 30
0.0
 11
-39.57
 21
95.21000000000001
 31
0.0
  0
LINE
  8
0
 10
-57.47
 20
97.09
 30
0.0
 11
-41.45
 21
77.3
 31
0.0
  0
LINE
  8
0
 10
154.5
 20
81.37
 30
0.0
 11
172.5
 21
99.37
 31
0.0
  0
LINE
  8
0
 10
154.5
 20
99.37
 30
0.0
 11
172.5
 21
81.37
 31
0.0
  0
LINE
  8
0
 10
-194.1
 20
22.86
 30
0.0
 11
-154.1
 21
40.86
 31
0.0
  0
LINE
  8
0
 10
-194.1
 20
40.86
 30
0.0
 11
-154.1
 21
22.86
 31
0.0
  0
LINE
  8
0
 10
333.0
 20
-15.0
 30
0.0
 11
351.0
 21
85.0
 31
0.0
  0
LINE
  8
0
 10
351.0
 20
-15.0
 30
0.0
 11
333.0
 21
85.0
 31
0.0
  0
LINE
  8
0
 10
-122.34
 20
-32.04
 30
0.0
 11
-94.16
 21
-15.96
 31
0.0
  0
LINE
  8
0
 10
-95.41
 20
-33.92
 30
0.0
 11
-121.09
 21
-14.08
 31
0.0
  0
LINE
  8
0
 10
-128.13
 20
64.55
 30
0.0
 11
-109.51
 21
81.91
 31
0.0
  0
LINE
  8
0
 10
-127.5
 20
82.54
 30
0.0
 11
-110.14
 21
63.92
 31
0.0
  0
ENDSEC
  0
EOF
