0
SECTION
2
HEADER
9
$INSUNITS
70
4
0
ENDSEC
0
SECTION
2
TABLES
0
TABLE
2
LTYPE
0
LTYPE
72
65
70
0
2
CONTINUOUS
3
______
73
0
40
0
0
LTYPE
72
65
70
0
2
DASHED
3
_ _ _ 
73
2
40
7.5
49
5
49
-2.5
0
LTYPE
72
65
70
0
2
DOTTED
3
. . . 
73
2
40
1.5
49
0.5
49
-1
0
ENDTAB
0
TABLE
2
LAYER
0
ENDTAB
0
ENDSEC
0
SECTION
2
ENTITIES
0
LINE
8
0
6
CONTINUOUS
10
29.5738966
20
7.3004362
11
47.3004362
21
10.4261034
0
LINE
8
0
6
CONTINUOUS
10
47.3004362
20
10.4261034
11
50.4261034
21
-7.3004362
0
LINE
8
0
6
CONTINUOUS
10
50.4261034
20
-7.3004362
11
32.6995638
21
-10.4261034
0
LINE
8
0
6
CONTINUOUS
10
32.6995638
20
-10.4261034
11
29.5738966
21
7.3004362
0
LINE
8
0
6
CONTINUOUS
10
26.2745812
20
26.0117835
11
44.0011208
21
29.1374507
0
LINE
8
0
6
CONTINUOUS
10
44.0011208
20
29.1374507
11
47.126788
21
11.4109111
0
LINE
8
0
6
CONTINUOUS
10
47.126788
20
11.4109111
11
29.4002484
21
8.2852439
0
LINE
8
0
6
CONTINUOUS
10
29.4002484
20
8.2852439
11
26.2745812
21
26.0117835
0
LINE
8
0
6
CONTINUOUS
10
22.9752658
20
44.7231308
11
40.7018054
21
47.848798
0
LINE
8
0
6
CONTINUOUS
10
40.7018054
20
47.848798
11
43.8274726
21
30.1222584
0
LINE
8
0
6
CONTINUOUS
10
43.8274726
20
30.1222584
11
26.100933
21
26.9965912
0
LINE
8
0
6
CONTINUOUS
10
26.100933
20
26.9965912
11
22.9752658
21
44.7231308
0
LINE
8
0
6
CONTINUOUS
10
19.6759504
20
63.4344781
11
37.40249
21
66.5601453
0
LINE
8
0
6
CONTINUOUS
10
37.40249
20
66.5601453
11
40.5281572
21
48.8336057
0
LINE
8
0
6
CONTINUOUS
10
40.5281572
20
48.8336057
11
22.8016176
21
45.7079385
0
LINE
8
0
6
CONTINUOUS
10
22.8016176
20
45.7079385
11
19.6759504
21
63.4344781
0
LINE
8
0
6
CONTINUOUS
10
49.580489
20
14.6693497
11
67.4053142
21
17.1744655
0
LINE
8
0
6
CONTINUOUS
10
67.4053142
20
17.1744655
11
69.91043
21
-0.6503597
0
LINE
8
0
6
CONTINUOUS
10
69.91043
20
-0.6503597
11
52.0856048
21
-3.1554755
0
LINE
8
0
6
CONTINUOUS
10
52.0856048
20
-3.1554755
11
49.580489
21
14.6693497
0
LINE
8
0
6
CONTINUOUS
10
46.9362001
20
33.484443
11
64.7610253
21
35.9895588
0
LINE
8
0
6
CONTINUOUS
10
64.7610253
20
35.9895588
11
67.2661411
21
18.1647336
0
LINE
8
0
6
CONTINUOUS
10
67.2661411
20
18.1647336
11
49.4413159
21
15.6596178
0
LINE
8
0
6
CONTINUOUS
10
49.4413159
20
15.6596178
11
46.9362001
21
33.484443
0
LINE
8
0
6
CONTINUOUS
10
44.2919112
20
52.2995363
11
62.1167364
21
54.8046521
0
LINE
8
0
6
CONTINUOUS
10
62.1167364
20
54.8046521
11
64.6218522
21
36.9798269
0
LINE
8
0
6
CONTINUOUS
10
64.6218522
20
36.9798269
11
46.797027
21
34.4747111
0
LINE
8
0
6
CONTINUOUS
10
46.797027
20
34.4747111
11
44.2919112
21
52.2995363
0
LINE
8
0
6
CONTINUOUS
10
41.6476223
20
71.1146296
11
59.4724475
21
73.6197454
0
LINE
8
0
6
CONTINUOUS
10
59.4724475
20
73.6197454
11
61.9775633
21
55.7949202
0
LINE
8
0
6
CONTINUOUS
10
61.9775633
20
55.7949202
11
44.1527381
21
53.2898044
0
LINE
8
0
6
CONTINUOUS
10
44.1527381
20
53.2898044
11
41.6476223
21
71.1146296
0
LINE
8
0
6
CONTINUOUS
10
69.8320653
20
21.3355543
11
87.7334594
21
23.2170666
0
LINE
8
0
6
CONTINUOUS
10
87.7334594
20
23.2170666
11
89.6149717
21
5.3156725
0
LINE
8
0
6
CONTINUOUS
10
89.6149717
20
5.3156725
11
71.7135776
21
3.4341602
0
LINE
8
0
6
CONTINUOUS
10
71.7135776
20
3.4341602
11
69.8320653
21
21.3355543
0
LINE
8
0
6
CONTINUOUS
10
67.8460245
20
40.2314703
11
85.7474186
21
42.1129826
0
LINE
8
0
6
CONTINUOUS
10
85.7474186
20
42.1129826
11
87.6289309
21
24.2115885
0
LINE
8
0
6
CONTINUOUS
10
87.6289309
20
24.2115885
11
69.7275368
21
22.3300762
0
LINE
8
0
6
CONTINUOUS
10
69.7275368
20
22.3300762
11
67.8460245
21
40.2314703
0
LINE
8
0
6
CONTINUOUS
10
65.8599837
20
59.1273863
11
83.7613778
21
61.0088986
0
LINE
8
0
6
CONTINUOUS
10
83.7613778
20
61.0088986
11
85.6428901
21
43.1075045
0
LINE
8
0
6
CONTINUOUS
10
85.6428901
20
43.1075045
11
67.741496
21
41.2259922
0
LINE
8
0
6
CONTINUOUS
10
67.741496
20
41.2259922
11
65.8599837
21
59.1273863
0
LINE
8
0
6
CONTINUOUS
10
63.8739429
20
78.0233023
11
81.775337
21
79.9048146
0
LINE
8
0
6
CONTINUOUS
10
81.775337
20
79.9048146
11
83.6568493
21
62.0034205
0
LINE
8
0
6
CONTINUOUS
10
83.6568493
20
62.0034205
11
65.7554552
21
60.1219082
0
LINE
8
0
6
CONTINUOUS
10
65.7554552
20
60.1219082
11
63.8739429
21
78.0233023
0
LINE
8
0
6
CONTINUOUS
10
90.303952
20
27.2909281
11
108.2601049
21
28.5465446
0
LINE
8
0
6
CONTINUOUS
10
108.2601049
20
28.5465446
11
109.5157214
21
10.5903917
0
LINE
8
0
6
CONTINUOUS
10
109.5157214
20
10.5903917
11
91.5595685
21
9.3347752
0
LINE
8
0
6
CONTINUOUS
10
91.5595685
20
9.3347752
11
90.303952
21
27.2909281
0
LINE
8
0
6
CONTINUOUS
10
88.978579
20
46.2446451
11
106.9347319
21
47.5002616
0
LINE
8
0
6
CONTINUOUS
10
106.9347319
20
47.5002616
11
108.1903484
21
29.5441087
0
LINE
8
0
6
CONTINUOUS
10
108.1903484
20
29.5441087
11
90.2341955
21
28.2884922
0
LINE
8
0
6
CONTINUOUS
10
90.2341955
20
28.2884922
11
88.978579
21
46.2446451
0
LINE
8
0
6
CONTINUOUS
10
87.653206
20
65.1983621
11
105.6093589
21
66.4539786
0
LINE
8
0
6
CONTINUOUS
10
105.6093589
20
66.4539786
11
106.8649754
21
48.4978257
0
LINE
8
0
6
CONTINUOUS
10
106.8649754
20
48.4978257
11
88.9088225
21
47.2422092
0
LINE
8
0
6
CONTINUOUS
10
88.9088225
20
47.2422092
11
87.653206
21
65.1983621
0
LINE
8
0
6
CONTINUOUS
10
86.327833
20
84.1520791
11
104.2839859
21
85.4076956
0
LINE
8
0
6
CONTINUOUS
10
104.2839859
20
85.4076956
11
105.5396024
21
67.4515427
0
LINE
8
0
6
CONTINUOUS
10
105.5396024
20
67.4515427
11
87.5834495
21
66.1959262
0
LINE
8
0
6
CONTINUOUS
10
87.5834495
20
66.1959262
11
86.327833
21
84.1520791
0
LINE
8
0
6
CONTINUOUS
10
111.5013566
20
24.9467287
11
129.4903915
21
25.5749196
0
LINE
8
0
6
CONTINUOUS
10
129.4903915
20
25.5749196
11
130.1185824
21
7.5858847
0
LINE
8
0
6
CONTINUOUS
10
130.1185824
20
7.5858847
11
112.1295475
21
6.9576938
0
LINE
8
0
6
CONTINUOUS
10
112.1295475
20
6.9576938
11
111.5013566
21
24.9467287
0
LINE
8
0
6
CONTINUOUS
10
110.8382662
20
43.9351544
11
128.8273011
21
44.5633453
0
LINE
8
0
6
CONTINUOUS
10
128.8273011
20
44.5633453
11
129.455492
21
26.5743104
0
LINE
8
0
6
CONTINUOUS
10
129.455492
20
26.5743104
11
111.4664571
21
25.9461195
0
LINE
8
0
6
CONTINUOUS
10
111.4664571
20
25.9461195
11
110.8382662
21
43.9351544
0
LINE
8
0
6
CONTINUOUS
10
110.1751758
20
62.9235801
11
128.1642107
21
63.551771
0
LINE
8
0
6
CONTINUOUS
10
128.1642107
20
63.551771
11
128.7924016
21
45.5627361
0
LINE
8
0
6
CONTINUOUS
10
128.7924016
20
45.5627361
11
110.8033667
21
44.9345452
0
LINE
8
0
6
CONTINUOUS
10
110.8033667
20
44.9345452
11
110.1751758
21
62.9235801
0
LINE
8
0
6
CONTINUOUS
10
109.5120854
20
81.9120058
11
127.5011203
21
82.5401967
0
LINE
8
0
6
CONTINUOUS
10
127.5011203
20
82.5401967
11
128.1293112
21
64.5511618
0
LINE
8
0
6
CONTINUOUS
10
128.1293112
20
64.5511618
11
110.1402763
21
63.9229709
0
LINE
8
0
6
CONTINUOUS
10
110.1402763
20
63.9229709
11
109.5120854
21
81.9120058
0
LINE
8
0
6
CONTINUOUS
10
132.6040368
20
59.8641787
11
150.6040368
21
59.8641787
0
LINE
8
0
6
CONTINUOUS
10
150.6040368
20
59.8641787
11
150.6040368
21
41.8641787
0
LINE
8
0
6
CONTINUOUS
10
150.6040368
20
41.8641787
11
132.6040368
21
41.8641787
0
LINE
8
0
6
CONTINUOUS
10
132.6040368
20
41.8641787
11
132.6040368
21
59.8641787
0
LINE
8
0
6
CONTINUOUS
10
132.6040368
20
78.8641787
11
150.6040368
21
78.8641787
0
LINE
8
0
6
CONTINUOUS
10
150.6040368
20
78.8641787
11
150.6040368
21
60.8641787
0
LINE
8
0
6
CONTINUOUS
10
150.6040368
20
60.8641787
11
132.6040368
21
60.8641787
0
LINE
8
0
6
CONTINUOUS
10
132.6040368
20
60.8641787
11
132.6040368
21
78.8641787
0
LINE
8
0
6
CONTINUOUS
10
132.6040368
20
21.8641787
11
194.1040368
21
21.8641787
0
LINE
8
0
6
CONTINUOUS
10
194.1040368
20
21.8641787
11
194.1040368
21
3.8641787
0
LINE
8
0
6
CONTINUOUS
10
194.1040368
20
3.8641787
11
132.6040368
21
3.8641787
0
LINE
8
0
6
CONTINUOUS
10
132.6040368
20
3.8641787
11
132.6040368
21
21.8641787
0
LINE
8
0
6
CONTINUOUS
10
132.6040368
20
40.8641787
11
194.1040368
21
40.8641787
0
LINE
8
0
6
CONTINUOUS
10
194.1040368
20
40.8641787
11
194.1040368
21
22.8641787
0
LINE
8
0
6
CONTINUOUS
10
194.1040368
20
22.8641787
11
132.6040368
21
22.8641787
0
LINE
8
0
6
CONTINUOUS
10
132.6040368
20
22.8641787
11
132.6040368
21
40.8641787
0
LINE
8
0
6
CONTINUOUS
10
154.1040368
20
59.8641787
11
194.1040368
21
59.8641787
0
LINE
8
0
6
CONTINUOUS
10
194.1040368
20
59.8641787
11
194.1040368
21
41.8641787
0
LINE
8
0
6
CONTINUOUS
10
194.1040368
20
41.8641787
11
154.1040368
21
41.8641787
0
LINE
8
0
6
CONTINUOUS
10
154.1040368
20
41.8641787
11
154.1040368
21
59.8641787
0
LINE
8
0
6
CONTINUOUS
10
154.1040368
20
78.8641788
11
194.1040368
21
78.8641788
0
LINE
8
0
6
CONTINUOUS
10
194.1040368
20
78.8641788
11
194.1040368
21
60.8641788
0
LINE
8
0
6
CONTINUOUS
10
194.1040368
20
60.8641788
11
154.1040368
21
60.8641788
0
LINE
8
0
6
CONTINUOUS
10
154.1040368
20
60.8641788
11
154.1040368
21
78.8641788
0
LINE
8
0
6
CONTINUOUS
10
-47.3004362
20
10.4261034
11
-29.5738966
21
7.3004362
0
LINE
8
0
6
CONTINUOUS
10
-29.5738966
20
7.3004362
11
-32.6995638
21
-10.4261034
0
LINE
8
0
6
CONTINUOUS
10
-32.6995638
20
-10.4261034
11
-50.4261034
21
-7.3004362
0
LINE
8
0
6
CONTINUOUS
10
-50.4261034
20
-7.3004362
11
-47.3004362
21
10.4261034
0
LINE
8
0
6
CONTINUOUS
10
-44.0011208
20
29.1374507
11
-26.2745812
21
26.0117835
0
LINE
8
0
6
CONTINUOUS
10
-26.2745812
20
26.0117835
11
-29.4002484
21
8.2852439
0
LINE
8
0
6
CONTINUOUS
10
-29.4002484
20
8.2852439
11
-47.126788
21
11.4109111
0
LINE
8
0
6
CONTINUOUS
10
-47.126788
20
11.4109111
11
-44.0011208
21
29.1374507
0
LINE
8
0
6
CONTINUOUS
10
-40.7018054
20
47.848798
11
-22.9752658
21
44.7231308
0
LINE
8
0
6
CONTINUOUS
10
-22.9752658
20
44.7231308
11
-26.100933
21
26.9965912
0
LINE
8
0
6
CONTINUOUS
10
-26.100933
20
26.9965912
11
-43.8274726
21
30.1222584
0
LINE
8
0
6
CONTINUOUS
10
-43.8274726
20
30.1222584
11
-40.7018054
21
47.848798
0
LINE
8
0
6
CONTINUOUS
10
-37.40249
20
66.5601453
11
-19.6759504
21
63.4344781
0
LINE
8
0
6
CONTINUOUS
10
-19.6759504
20
63.4344781
11
-22.8016176
21
45.7079385
0
LINE
8
0
6
CONTINUOUS
10
-22.8016176
20
45.7079385
11
-40.5281572
21
48.8336057
0
LINE
8
0
6
CONTINUOUS
10
-40.5281572
20
48.8336057
11
-37.40249
21
66.5601453
0
LINE
8
0
6
CONTINUOUS
10
-67.4053142
20
17.1744655
11
-49.580489
21
14.6693497
0
LINE
8
0
6
CONTINUOUS
10
-49.580489
20
14.6693497
11
-52.0856048
21
-3.1554755
0
LINE
8
0
6
CONTINUOUS
10
-52.0856048
20
-3.1554755
11
-69.91043
21
-0.6503597
0
LINE
8
0
6
CONTINUOUS
10
-69.91043
20
-0.6503597
11
-67.4053142
21
17.1744655
0
LINE
8
0
6
CONTINUOUS
10
-64.7610253
20
35.9895588
11
-46.9362001
21
33.484443
0
LINE
8
0
6
CONTINUOUS
10
-46.9362001
20
33.484443
11
-49.4413159
21
15.6596178
0
LINE
8
0
6
CONTINUOUS
10
-49.4413159
20
15.6596178
11
-67.2661411
21
18.1647336
0
LINE
8
0
6
CONTINUOUS
10
-67.2661411
20
18.1647336
11
-64.7610253
21
35.9895588
0
LINE
8
0
6
CONTINUOUS
10
-62.1167364
20
54.8046521
11
-44.2919112
21
52.2995363
0
LINE
8
0
6
CONTINUOUS
10
-44.2919112
20
52.2995363
11
-46.797027
21
34.4747111
0
LINE
8
0
6
CONTINUOUS
10
-46.797027
20
34.4747111
11
-64.6218522
21
36.9798269
0
LINE
8
0
6
CONTINUOUS
10
-64.6218522
20
36.9798269
11
-62.1167364
21
54.8046521
0
LINE
8
0
6
CONTINUOUS
10
-59.4724475
20
73.6197454
11
-41.6476223
21
71.1146296
0
LINE
8
0
6
CONTINUOUS
10
-41.6476223
20
71.1146296
11
-44.1527381
21
53.2898044
0
LINE
8
0
6
CONTINUOUS
10
-44.1527381
20
53.2898044
11
-61.9775633
21
55.7949202
0
LINE
8
0
6
CONTINUOUS
10
-61.9775633
20
55.7949202
11
-59.4724475
21
73.6197454
0
LINE
8
0
6
CONTINUOUS
10
-87.7334594
20
23.2170666
11
-69.8320653
21
21.3355543
0
LINE
8
0
6
CONTINUOUS
10
-69.8320653
20
21.3355543
11
-71.7135776
21
3.4341602
0
LINE
8
0
6
CONTINUOUS
10
-71.7135776
20
3.4341602
11
-89.6149717
21
5.3156725
0
LINE
8
0
6
CONTINUOUS
10
-89.6149717
20
5.3156725
11
-87.7334594
21
23.2170666
0
LINE
8
0
6
CONTINUOUS
10
-85.7474186
20
42.1129826
11
-67.8460245
21
40.2314703
0
LINE
8
0
6
CONTINUOUS
10
-67.8460245
20
40.2314703
11
-69.7275368
21
22.3300762
0
LINE
8
0
6
CONTINUOUS
10
-69.7275368
20
22.3300762
11
-87.6289309
21
24.2115885
0
LINE
8
0
6
CONTINUOUS
10
-87.6289309
20
24.2115885
11
-85.7474186
21
42.1129826
0
LINE
8
0
6
CONTINUOUS
10
-83.7613778
20
61.0088986
11
-65.8599837
21
59.1273863
0
LINE
8
0
6
CONTINUOUS
10
-65.8599837
20
59.1273863
11
-67.741496
21
41.2259922
0
LINE
8
0
6
CONTINUOUS
10
-67.741496
20
41.2259922
11
-85.6428901
21
43.1075045
0
LINE
8
0
6
CONTINUOUS
10
-85.6428901
20
43.1075045
11
-83.7613778
21
61.0088986
0
LINE
8
0
6
CONTINUOUS
10
-81.775337
20
79.9048146
11
-63.8739429
21
78.0233023
0
LINE
8
0
6
CONTINUOUS
10
-63.8739429
20
78.0233023
11
-65.7554552
21
60.1219082
0
LINE
8
0
6
CONTINUOUS
10
-65.7554552
20
60.1219082
11
-83.6568493
21
62.0034205
0
LINE
8
0
6
CONTINUOUS
10
-83.6568493
20
62.0034205
11
-81.775337
21
79.9048146
0
LINE
8
0
6
CONTINUOUS
10
-108.2601049
20
28.5465446
11
-90.303952
21
27.2909281
0
LINE
8
0
6
CONTINUOUS
10
-90.303952
20
27.2909281
11
-91.5595685
21
9.3347752
0
LINE
8
0
6
CONTINUOUS
10
-91.5595685
20
9.3347752
11
-109.5157214
21
10.5903917
0
LINE
8
0
6
CONTINUOUS
10
-109.5157214
20
10.5903917
11
-108.2601049
21
28.5465446
0
LINE
8
0
6
CONTINUOUS
10
-106.9347319
20
47.5002616
11
-88.978579
21
46.2446451
0
LINE
8
0
6
CONTINUOUS
10
-88.978579
20
46.2446451
11
-90.2341955
21
28.2884922
0
LINE
8
0
6
CONTINUOUS
10
-90.2341955
20
28.2884922
11
-108.1903484
21
29.5441087
0
LINE
8
0
6
CONTINUOUS
10
-108.1903484
20
29.5441087
11
-106.9347319
21
47.5002616
0
LINE
8
0
6
CONTINUOUS
10
-105.6093589
20
66.4539786
11
-87.653206
21
65.1983621
0
LINE
8
0
6
CONTINUOUS
10
-87.653206
20
65.1983621
11
-88.9088225
21
47.2422092
0
LINE
8
0
6
CONTINUOUS
10
-88.9088225
20
47.2422092
11
-106.8649754
21
48.4978257
0
LINE
8
0
6
CONTINUOUS
10
-106.8649754
20
48.4978257
11
-105.6093589
21
66.4539786
0
LINE
8
0
6
CONTINUOUS
10
-104.2839859
20
85.4076956
11
-86.327833
21
84.1520791
0
LINE
8
0
6
CONTINUOUS
10
-86.327833
20
84.1520791
11
-87.5834495
21
66.1959262
0
LINE
8
0
6
CONTINUOUS
10
-87.5834495
20
66.1959262
11
-105.5396024
21
67.4515427
0
LINE
8
0
6
CONTINUOUS
10
-105.5396024
20
67.4515427
11
-104.2839859
21
85.4076956
0
LINE
8
0
6
CONTINUOUS
10
-129.4903915
20
25.5749196
11
-111.5013566
21
24.9467287
0
LINE
8
0
6
CONTINUOUS
10
-111.5013566
20
24.9467287
11
-112.1295475
21
6.9576938
0
LINE
8
0
6
CONTINUOUS
10
-112.1295475
20
6.9576938
11
-130.1185824
21
7.5858847
0
LINE
8
0
6
CONTINUOUS
10
-130.1185824
20
7.5858847
11
-129.4903915
21
25.5749196
0
LINE
8
0
6
CONTINUOUS
10
-128.8273011
20
44.5633453
11
-110.8382662
21
43.9351544
0
LINE
8
0
6
CONTINUOUS
10
-110.8382662
20
43.9351544
11
-111.4664571
21
25.9461195
0
LINE
8
0
6
CONTINUOUS
10
-111.4664571
20
25.9461195
11
-129.455492
21
26.5743104
0
LINE
8
0
6
CONTINUOUS
10
-129.455492
20
26.5743104
11
-128.8273011
21
44.5633453
0
LINE
8
0
6
CONTINUOUS
10
-128.1642107
20
63.551771
11
-110.1751758
21
62.9235801
0
LINE
8
0
6
CONTINUOUS
10
-110.1751758
20
62.9235801
11
-110.8033667
21
44.9345452
0
LINE
8
0
6
CONTINUOUS
10
-110.8033667
20
44.9345452
11
-128.7924016
21
45.5627361
0
LINE
8
0
6
CONTINUOUS
10
-128.7924016
20
45.5627361
11
-128.1642107
21
63.551771
0
LINE
8
0
6
CONTINUOUS
10
-127.5011203
20
82.5401967
11
-109.5120854
21
81.9120058
0
LINE
8
0
6
CONTINUOUS
10
-109.5120854
20
81.9120058
11
-110.1402763
21
63.9229709
0
LINE
8
0
6
CONTINUOUS
10
-110.1402763
20
63.9229709
11
-128.1293112
21
64.5511618
0
LINE
8
0
6
CONTINUOUS
10
-128.1293112
20
64.5511618
11
-127.5011203
21
82.5401967
0
LINE
8
0
6
CONTINUOUS
10
-150.6040368
20
59.8641787
11
-132.6040368
21
59.8641787
0
LINE
8
0
6
CONTINUOUS
10
-132.6040368
20
59.8641787
11
-132.6040368
21
41.8641787
0
LINE
8
0
6
CONTINUOUS
10
-132.6040368
20
41.8641787
11
-150.6040368
21
41.8641787
0
LINE
8
0
6
CONTINUOUS
10
-150.6040368
20
41.8641787
11
-150.6040368
21
59.8641787
0
LINE
8
0
6
CONTINUOUS
10
-150.6040368
20
78.8641787
11
-132.6040368
21
78.8641787
0
LINE
8
0
6
CONTINUOUS
10
-132.6040368
20
78.8641787
11
-132.6040368
21
60.8641787
0
LINE
8
0
6
CONTINUOUS
10
-132.6040368
20
60.8641787
11
-150.6040368
21
60.8641787
0
LINE
8
0
6
CONTINUOUS
10
-150.6040368
20
60.8641787
11
-150.6040368
21
78.8641787
0
LINE
8
0
6
CONTINUOUS
10
-194.1040368
20
21.8641787
11
-132.6040368
21
21.8641787
0
LINE
8
0
6
CONTINUOUS
10
-132.6040368
20
21.8641787
11
-132.6040368
21
3.8641787
0
LINE
8
0
6
CONTINUOUS
10
-132.6040368
20
3.8641787
11
-194.1040368
21
3.8641787
0
LINE
8
0
6
CONTINUOUS
10
-194.1040368
20
3.8641787
11
-194.1040368
21
21.8641787
0
LINE
8
0
6
CONTINUOUS
10
-194.1040368
20
59.8641787
11
-154.1040368
21
59.8641787
0
LINE
8
0
6
CONTINUOUS
10
-154.1040368
20
59.8641787
11
-154.1040368
21
41.8641787
0
LINE
8
0
6
CONTINUOUS
10
-154.1040368
20
41.8641787
11
-194.1040368
21
41.8641787
0
LINE
8
0
6
CONTINUOUS
10
-194.1040368
20
41.8641787
11
-194.1040368
21
59.8641787
0
LINE
8
0
6
CONTINUOUS
10
-172.1040368
20
78.8641787
11
-154.1040368
21
78.8641787
0
LINE
8
0
6
CONTINUOUS
10
-154.1040368
20
78.8641787
11
-154.1040368
21
60.8641787
0
LINE
8
0
6
CONTINUOUS
10
-154.1040368
20
60.8641787
11
-172.1040368
21
60.8641787
0
LINE
8
0
6
CONTINUOUS
10
-172.1040368
20
60.8641787
11
-172.1040368
21
78.8641787
0
LINE
8
0
6
CONTINUOUS
10
-194.1040368
20
78.8641788
11
-176.1040368
21
78.8641788
0
LINE
8
0
6
CONTINUOUS
10
-176.1040368
20
78.8641788
11
-176.1040368
21
60.8641788
0
LINE
8
0
6
CONTINUOUS
10
-176.1040368
20
60.8641788
11
-194.1040368
21
60.8641788
0
LINE
8
0
6
CONTINUOUS
10
-194.1040368
20
60.8641788
11
-194.1040368
21
78.8641788
0
LINE
8
0
6
CONTINUOUS
10
-150.6040368
20
40.8641788
11
-132.6040368
21
40.8641788
0
LINE
8
0
6
CONTINUOUS
10
-132.6040368
20
40.8641788
11
-132.6040368
21
22.8641788
0
LINE
8
0
6
CONTINUOUS
10
-132.6040368
20
22.8641788
11
-150.6040368
21
22.8641788
0
LINE
8
0
6
CONTINUOUS
10
-150.6040368
20
22.8641788
11
-150.6040368
21
40.8641788
0
LINE
8
0
6
CONTINUOUS
10
-194.1040368
20
40.8641788
11
-154.1040368
21
40.8641788
0
LINE
8
0
6
CONTINUOUS
10
-154.1040368
20
40.8641788
11
-154.1040368
21
22.8641788
0
LINE
8
0
6
CONTINUOUS
10
-154.1040368
20
22.8641788
11
-194.1040368
21
22.8641788
0
LINE
8
0
6
CONTINUOUS
10
-194.1040368
20
22.8641788
11
-194.1040368
21
40.8641788
0
LINE
8
0
6
CONTINUOUS
10
17.3440491
20
88.5166422
11
35.3193807
21
89.4586894
0
LINE
8
0
6
CONTINUOUS
10
35.3193807
20
89.4586894
11
36.2614279
21
71.4833578
0
LINE
8
0
6
CONTINUOUS
10
36.2614279
20
71.4833578
11
18.2860963
21
70.5413106
0
LINE
8
0
6
CONTINUOUS
10
18.2860963
20
70.5413106
11
17.3440491
21
88.5166422
0
LINE
8
0
6
CONTINUOUS
10
39.5657489
20
95.2054451
11
57.467143
21
97.0869574
0
LINE
8
0
6
CONTINUOUS
10
57.467143
20
97.0869574
11
59.3486553
21
79.1855633
0
LINE
8
0
6
CONTINUOUS
10
59.3486553
20
79.1855633
11
41.4472612
21
77.304051
0
LINE
8
0
6
CONTINUOUS
10
41.4472612
20
77.304051
11
39.5657489
21
95.2054451
0
LINE
8
0
6
CONTINUOUS
10
62.2453455
20
104.0834324
11
80.2206771
21
105.0254796
0
LINE
8
0
6
CONTINUOUS
10
80.2206771
20
105.0254796
11
81.1627243
21
87.050148
0
LINE
8
0
6
CONTINUOUS
10
81.1627243
20
87.050148
11
63.1873927
21
86.1081008
0
LINE
8
0
6
CONTINUOUS
10
63.1873927
20
86.1081008
11
62.2453455
21
104.0834324
0
LINE
8
0
6
CONTINUOUS
10
85.6725141
20
105.7705172
11
103.6725141
21
105.7705172
0
LINE
8
0
6
CONTINUOUS
10
103.6725141
20
105.7705172
11
103.6725141
21
87.7705172
0
LINE
8
0
6
CONTINUOUS
10
103.6725141
20
87.7705172
11
85.6725141
21
87.7705172
0
LINE
8
0
6
CONTINUOUS
10
85.6725141
20
87.7705172
11
85.6725141
21
105.7705172
0
LINE
8
0
6
CONTINUOUS
10
109.155872
20
104.2292066
11
127.1312036
21
103.2871594
0
LINE
8
0
6
CONTINUOUS
10
127.1312036
20
103.2871594
11
126.1891564
21
85.3118278
0
LINE
8
0
6
CONTINUOUS
10
126.1891564
20
85.3118278
11
108.2138248
21
86.253875
0
LINE
8
0
6
CONTINUOUS
10
108.2138248
20
86.253875
11
109.155872
21
104.2292066
0
LINE
8
0
6
CONTINUOUS
10
132.0196794
20
101.0282205
11
149.995011
21
100.0861733
0
LINE
8
0
6
CONTINUOUS
10
149.995011
20
100.0861733
11
149.0529638
21
82.1108417
0
LINE
8
0
6
CONTINUOUS
10
149.0529638
20
82.1108417
11
131.0776322
21
83.0528889
0
LINE
8
0
6
CONTINUOUS
10
131.0776322
20
83.0528889
11
132.0196794
21
101.0282205
0
LINE
8
0
6
CONTINUOUS
10
154.5048009
20
99.3658041
11
172.5048009
21
99.3658041
0
LINE
8
0
6
CONTINUOUS
10
172.5048009
20
99.3658041
11
172.5048009
21
81.3658041
0
LINE
8
0
6
CONTINUOUS
10
172.5048009
20
81.3658041
11
154.5048009
21
81.3658041
0
LINE
8
0
6
CONTINUOUS
10
154.5048009
20
81.3658041
11
154.5048009
21
99.3658041
0
LINE
8
0
6
CONTINUOUS
10
176.1048007
20
99.3658041
11
194.1048007
21
99.3658041
0
LINE
8
0
6
CONTINUOUS
10
194.1048007
20
99.3658041
11
194.1048007
21
81.3658041
0
LINE
8
0
6
CONTINUOUS
10
194.1048007
20
81.3658041
11
176.1048007
21
81.3658041
0
LINE
8
0
6
CONTINUOUS
10
176.1048007
20
81.3658041
11
176.1048007
21
99.3658041
0
LINE
8
0
6
CONTINUOUS
10
-35.3193807
20
89.4586894
11
-17.3440491
21
88.5166422
0
LINE
8
0
6
CONTINUOUS
10
-17.3440491
20
88.5166422
11
-18.2860963
21
70.5413106
0
LINE
8
0
6
CONTINUOUS
10
-18.2860963
20
70.5413106
11
-36.2614279
21
71.4833578
0
LINE
8
0
6
CONTINUOUS
10
-36.2614279
20
71.4833578
11
-35.3193807
21
89.4586894
0
LINE
8
0
6
CONTINUOUS
10
-57.467143
20
97.0869574
11
-39.5657489
21
95.2054451
0
LINE
8
0
6
CONTINUOUS
10
-39.5657489
20
95.2054451
11
-41.4472612
21
77.304051
0
LINE
8
0
6
CONTINUOUS
10
-41.4472612
20
77.304051
11
-59.3486553
21
79.1855633
0
LINE
8
0
6
CONTINUOUS
10
-59.3486553
20
79.1855633
11
-57.467143
21
97.0869574
0
LINE
8
0
6
CONTINUOUS
10
-80.2206771
20
105.0254796
11
-62.2453455
21
104.0834324
0
LINE
8
0
6
CONTINUOUS
10
-62.2453455
20
104.0834324
11
-63.1873927
21
86.1081008
0
LINE
8
0
6
CONTINUOUS
10
-63.1873927
20
86.1081008
11
-81.1627243
21
87.050148
0
LINE
8
0
6
CONTINUOUS
10
-81.1627243
20
87.050148
11
-80.2206771
21
105.0254796
0
LINE
8
0
6
CONTINUOUS
10
-103.6725141
20
105.7705172
11
-85.6725141
21
105.7705172
0
LINE
8
0
6
CONTINUOUS
10
-85.6725141
20
105.7705172
11
-85.6725141
21
87.7705172
0
LINE
8
0
6
CONTINUOUS
10
-85.6725141
20
87.7705172
11
-103.6725141
21
87.7705172
0
LINE
8
0
6
CONTINUOUS
10
-103.6725141
20
87.7705172
11
-103.6725141
21
105.7705172
0
LINE
8
0
6
CONTINUOUS
10
-127.1312036
20
103.2871594
11
-109.155872
21
104.2292066
0
LINE
8
0
6
CONTINUOUS
10
-109.155872
20
104.2292066
11
-108.2138248
21
86.253875
0
LINE
8
0
6
CONTINUOUS
10
-108.2138248
20
86.253875
11
-126.1891564
21
85.3118278
0
LINE
8
0
6
CONTINUOUS
10
-126.1891564
20
85.3118278
11
-127.1312036
21
103.2871594
0
LINE
8
0
6
CONTINUOUS
10
-149.995011
20
100.0861733
11
-132.0196794
21
101.0282205
0
LINE
8
0
6
CONTINUOUS
10
-132.0196794
20
101.0282205
11
-131.0776322
21
83.0528889
0
LINE
8
0
6
CONTINUOUS
10
-131.0776322
20
83.0528889
11
-149.0529638
21
82.1108417
0
LINE
8
0
6
CONTINUOUS
10
-149.0529638
20
82.1108417
11
-149.995011
21
100.0861733
0
LINE
8
0
6
CONTINUOUS
10
-172.5048009
20
99.3658041
11
-154.5048009
21
99.3658041
0
LINE
8
0
6
CONTINUOUS
10
-154.5048009
20
99.3658041
11
-154.5048009
21
81.3658041
0
LINE
8
0
6
CONTINUOUS
10
-154.5048009
20
81.3658041
11
-172.5048009
21
81.3658041
0
LINE
8
0
6
CONTINUOUS
10
-172.5048009
20
81.3658041
11
-172.5048009
21
99.3658041
0
LINE
8
0
6
CONTINUOUS
10
-194.1048007
20
99.3658041
11
-176.1048007
21
99.3658041
0
LINE
8
0
6
CONTINUOUS
10
-176.1048007
20
99.3658041
11
-176.1048007
21
81.3658041
0
LINE
8
0
6
CONTINUOUS
10
-176.1048007
20
81.3658041
11
-194.1048007
21
81.3658041
0
LINE
8
0
6
CONTINUOUS
10
-194.1048007
20
81.3658041
11
-194.1048007
21
99.3658041
0
LINE
8
0
6
CONTINUOUS
10
2.25
20
-16
11
87.75
21
-16
0
LINE
8
0
6
CONTINUOUS
10
87.75
20
-16
11
87.75
21
-34
0
LINE
8
0
6
CONTINUOUS
10
87.75
20
-34
11
2.25
21
-34
0
LINE
8
0
6
CONTINUOUS
10
2.25
20
-34
11
2.25
21
-16
0
LINE
8
0
6
CONTINUOUS
10
94.1550771
20
-15.9636359
11
121.0893064
21
-14.0802112
0
LINE
8
0
6
CONTINUOUS
10
121.0893064
20
-14.0802112
11
122.3449229
21
-32.0363641
0
LINE
8
0
6
CONTINUOUS
10
122.3449229
20
-32.0363641
11
95.4106936
21
-33.9197888
0
LINE
8
0
6
CONTINUOUS
10
95.4106936
20
-33.9197888
11
94.1550771
21
-15.9636359
0
LINE
8
0
6
CONTINUOUS
10
126.7280714
20
-13.6494574
11
153.4653092
21
-9.8917837
0
LINE
8
0
6
CONTINUOUS
10
153.4653092
20
-9.8917837
11
155.970425
21
-27.716609
0
LINE
8
0
6
CONTINUOUS
10
155.970425
20
-27.716609
11
129.2331872
21
-31.4742827
0
LINE
8
0
6
CONTINUOUS
10
129.2331872
20
-31.4742827
11
126.7280714
21
-13.6494574
0
LINE
8
0
6
CONTINUOUS
10
159.1148327
20
-9.3780626
11
194.3281463
21
-1.8932418
0
LINE
8
0
6
CONTINUOUS
10
194.3281463
20
-1.8932418
11
198.0705567
21
-19.4998986
0
LINE
8
0
6
CONTINUOUS
10
198.0705567
20
-19.4998986
11
162.8572431
21
-26.9847194
0
LINE
8
0
6
CONTINUOUS
10
162.8572431
20
-26.9847194
11
159.1148327
21
-9.3780626
0
LINE
8
0
6
CONTINUOUS
10
-87.75
20
-16
11
-2.25
21
-16
0
LINE
8
0
6
CONTINUOUS
10
-2.25
20
-16
11
-2.25
21
-34
0
LINE
8
0
6
CONTINUOUS
10
-2.25
20
-34
11
-87.75
21
-34
0
LINE
8
0
6
CONTINUOUS
10
-87.75
20
-34
11
-87.75
21
-16
0
LINE
8
0
6
CONTINUOUS
10
-121.0893064
20
-14.0802112
11
-94.1550771
21
-15.9636359
0
LINE
8
0
6
CONTINUOUS
10
-94.1550771
20
-15.9636359
11
-95.4106936
21
-33.9197888
0
LINE
8
0
6
CONTINUOUS
10
-95.4106936
20
-33.9197888
11
-122.3449229
21
-32.0363641
0
LINE
8
0
6
CONTINUOUS
10
-122.3449229
20
-32.0363641
11
-121.0893064
21
-14.0802112
0
LINE
8
0
6
CONTINUOUS
10
-153.4653092
20
-9.8917837
11
-126.7280714
21
-13.6494574
0
LINE
8
0
6
CONTINUOUS
10
-126.7280714
20
-13.6494574
11
-129.2331872
21
-31.4742827
0
LINE
8
0
6
CONTINUOUS
10
-129.2331872
20
-31.4742827
11
-155.970425
21
-27.716609
0
LINE
8
0
6
CONTINUOUS
10
-155.970425
20
-27.716609
11
-153.4653092
21
-9.8917837
0
LINE
8
0
6
CONTINUOUS
10
-194.3281463
20
-1.8932418
11
-159.1148327
21
-9.3780626
0
LINE
8
0
6
CONTINUOUS
10
-159.1148327
20
-9.3780626
11
-162.8572431
21
-26.9847194
0
LINE
8
0
6
CONTINUOUS
10
-162.8572431
20
-26.9847194
11
-198.0705567
21
-19.4998986
0
LINE
8
0
6
CONTINUOUS
10
-198.0705567
20
-19.4998986
11
-194.3281463
21
-1.8932418
0
LINE
8
0
6
CONTINUOUS
10
211
20
-16
11
229
21
-16
0
LINE
8
0
6
CONTINUOUS
10
229
20
-16
11
229
21
-34
0
LINE
8
0
6
CONTINUOUS
10
229
20
-34
11
211
21
-34
0
LINE
8
0
6
CONTINUOUS
10
211
20
-34
11
211
21
-16
0
LINE
8
0
6
CONTINUOUS
10
211
20
80.35
11
229
21
80.35
0
LINE
8
0
6
CONTINUOUS
10
229
20
80.35
11
229
21
62.35
0
LINE
8
0
6
CONTINUOUS
10
229
20
62.35
11
211
21
62.35
0
LINE
8
0
6
CONTINUOUS
10
211
20
62.35
11
211
21
80.35
0
LINE
8
0
6
CONTINUOUS
10
211
20
99.35
11
229
21
99.35
0
LINE
8
0
6
CONTINUOUS
10
229
20
99.35
11
229
21
81.35
0
LINE
8
0
6
CONTINUOUS
10
229
20
81.35
11
211
21
81.35
0
LINE
8
0
6
CONTINUOUS
10
211
20
81.35
11
211
21
99.35
0
LINE
8
0
6
CONTINUOUS
10
232
20
-16
11
250
21
-16
0
LINE
8
0
6
CONTINUOUS
10
250
20
-16
11
250
21
-34
0
LINE
8
0
6
CONTINUOUS
10
250
20
-34
11
232
21
-34
0
LINE
8
0
6
CONTINUOUS
10
232
20
-34
11
232
21
-16
0
LINE
8
0
6
CONTINUOUS
10
232
20
3
11
250
21
3
0
LINE
8
0
6
CONTINUOUS
10
250
20
3
11
250
21
-15
0
LINE
8
0
6
CONTINUOUS
10
250
20
-15
11
232
21
-15
0
LINE
8
0
6
CONTINUOUS
10
232
20
-15
11
232
21
3
0
LINE
8
0
6
CONTINUOUS
10
205
20
60
11
277
21
60
0
LINE
8
0
6
CONTINUOUS
10
277
20
60
11
277
21
6
0
LINE
8
0
6
CONTINUOUS
10
277
20
6
11
205
21
6
0
LINE
8
0
6
CONTINUOUS
10
205
20
6
11
205
21
60
0
LINE
8
0
6
CONTINUOUS
10
232
20
80.35
11
250
21
80.35
0
LINE
8
0
6
CONTINUOUS
10
250
20
80.35
11
250
21
62.35
0
LINE
8
0
6
CONTINUOUS
10
250
20
62.35
11
232
21
62.35
0
LINE
8
0
6
CONTINUOUS
10
232
20
62.35
11
232
21
80.35
0
LINE
8
0
6
CONTINUOUS
10
232
20
99.35
11
250
21
99.35
0
LINE
8
0
6
CONTINUOUS
10
250
20
99.35
11
250
21
81.35
0
LINE
8
0
6
CONTINUOUS
10
250
20
81.35
11
232
21
81.35
0
LINE
8
0
6
CONTINUOUS
10
232
20
81.35
11
232
21
99.35
0
LINE
8
0
6
CONTINUOUS
10
253
20
-16
11
271
21
-16
0
LINE
8
0
6
CONTINUOUS
10
271
20
-16
11
271
21
-34
0
LINE
8
0
6
CONTINUOUS
10
271
20
-34
11
253
21
-34
0
LINE
8
0
6
CONTINUOUS
10
253
20
-34
11
253
21
-16
0
LINE
8
0
6
CONTINUOUS
10
253
20
80.35
11
271
21
80.35
0
LINE
8
0
6
CONTINUOUS
10
271
20
80.35
11
271
21
62.35
0
LINE
8
0
6
CONTINUOUS
10
271
20
62.35
11
253
21
62.35
0
LINE
8
0
6
CONTINUOUS
10
253
20
62.35
11
253
21
80.35
0
LINE
8
0
6
CONTINUOUS
10
253
20
99.35
11
271
21
99.35
0
LINE
8
0
6
CONTINUOUS
10
271
20
99.35
11
271
21
81.35
0
LINE
8
0
6
CONTINUOUS
10
271
20
81.35
11
253
21
81.35
0
LINE
8
0
6
CONTINUOUS
10
253
20
81.35
11
253
21
99.35
0
LINE
8
0
6
CONTINUOUS
10
291
20
85
11
309
21
85
0
LINE
8
0
6
CONTINUOUS
10
309
20
85
11
309
21
-15
0
LINE
8
0
6
CONTINUOUS
10
309
20
-15
11
291
21
-15
0
LINE
8
0
6
CONTINUOUS
10
291
20
-15
11
291
21
85
0
LINE
8
0
6
CONTINUOUS
10
312
20
85
11
330
21
85
0
LINE
8
0
6
CONTINUOUS
10
330
20
85
11
330
21
-15
0
LINE
8
0
6
CONTINUOUS
10
330
20
-15
11
312
21
-15
0
LINE
8
0
6
CONTINUOUS
10
312
20
-15
11
312
21
85
0
LINE
8
0
6
CONTINUOUS
10
333
20
85
11
351
21
85
0
LINE
8
0
6
CONTINUOUS
10
351
20
85
11
351
21
-15
0
LINE
8
0
6
CONTINUOUS
10
351
20
-15
11
333
21
-15
0
LINE
8
0
6
CONTINUOUS
10
333
20
-15
11
333
21
85
0
ENDSEC
0
EOF